<?xml version="1.0" encoding="utf-8"?>
<!-- Generator: Adobe Illustrator 16.0.0, SVG Export Plug-In . SVG Version: 6.00 Build 0)  -->
<!DOCTYPE svg PUBLIC "-//W3C//DTD SVG 1.1//EN" "http://www.w3.org/Graphics/SVG/1.1/DTD/svg11.dtd">
<svg version="1.1" id="Layer_1" xmlns="http://www.w3.org/2000/svg" xmlns:xlink="http://www.w3.org/1999/xlink" x="0px" y="0px"
	 width="612px" height="628px" viewBox="0 115.5 612 628" enable-background="new 0 115.5 612 628" xml:space="preserve">
<path d="M406.634,392.5v83.066C261.267,496.333,198.967,600.167,178.2,704c51.917-72.684,124.6-105.91,228.434-105.91v85.144
	L552,537.866L406.634,392.5 M448.167,492.803l45.063,45.063l-45.063,45.064v-26.374h-41.533c-42.987,0-81.613,7.891-117.54,19.729
	c29.073-28.865,66.453-51.501,123.354-59.186l35.72-5.606V492.803z"/>
<path d="M229.5,370.5c49.291,0,89.25-39.958,89.25-89.25S278.791,192,229.5,192c-49.292,0-89.25,39.958-89.25,89.25
	S180.208,370.5,229.5,370.5z M229.5,243c21.125,0,38.25,17.125,38.25,38.25s-17.125,38.25-38.25,38.25s-38.25-17.125-38.25-38.25
	S208.375,243,229.5,243z"/>
<path d="M382.5,370.5c49.291,0,89.25-39.958,89.25-89.25S431.791,192,382.5,192c-17.553-0.098-34.719,5.15-49.216,15.045
	c31.758,44.373,31.758,104.037,0,148.41C347.781,365.35,364.948,370.598,382.5,370.5z"/>
<g>
	<path d="M267.406,553.223c2.101-2.741,4.258-5.445,6.48-8.109c-3.369,2.979-6.633,6.036-9.792,9.172
		C265.193,553.923,266.302,553.577,267.406,553.223z"/>
	<path d="M233.092,523.5H102c1.785-17.595,33.915-51,127.5-51c27.04,0,48.788,2.602,66.146,6.775
		c21.121-10.352,44.949-18.338,71.791-23.363C341.53,436.999,299.078,421.5,229.5,421.5C51,421.5,51,523.5,51,523.5v51h142.262
		C204.243,556.135,217.419,538.927,233.092,523.5z"/>
</g>
</svg>
