<?xml version="1.0" encoding="utf-8"?>
<!-- Generator: Adobe Illustrator 16.0.0, SVG Export Plug-In . SVG Version: 6.00 Build 0)  -->
<!DOCTYPE svg PUBLIC "-//W3C//DTD SVG 1.1//EN" "http://www.w3.org/Graphics/SVG/1.1/DTD/svg11.dtd">
<svg version="1.1" id="Layer_1" xmlns="http://www.w3.org/2000/svg" xmlns:xlink="http://www.w3.org/1999/xlink" x="0px" y="0px"
	 width="519.5px" height="433.5px" viewBox="16 192 519.5 433.5" enable-background="new 16 192 519.5 433.5" xml:space="preserve">
<polyline points="484.5,549 484.5,447 433.5,447 433.5,549 382.5,549 459,625.5 535.5,549 484.5,549 "/>
<path d="M484.5,549V447h-51v102h-51l76.5,76.5l76.5-76.5H484.5 M280.5,192c-56.101,0-102,45.9-102,102s45.899,102,102,102
	c56.1,0,102-45.899,102-102S336.6,192,280.5,192 M280.5,243c28.05,0,51,22.95,51,51s-22.95,51-51,51s-51-22.95-51-51
	S252.45,243,280.5,243 M280.5,421.5c-68.851,0-204,33.15-204,102V600h242.25c-7.65-15.299-10.2-30.6-12.75-48.449H124.95V523.5
	c0-15.299,79.05-53.549,155.55-53.549c12.75,0,25.5,2.549,38.25,2.549c7.649-15.299,15.3-30.6,28.05-43.35
	C321.3,424.051,298.35,421.5,280.5,421.5"/>
</svg>
