<?xml version="1.0" encoding="utf-8"?>
<!-- Generator: Adobe Illustrator 16.0.0, SVG Export Plug-In . SVG Version: 6.00 Build 0)  -->
<!DOCTYPE svg PUBLIC "-//W3C//DTD SVG 1.1//EN" "http://www.w3.org/Graphics/SVG/1.1/DTD/svg11.dtd">
<svg version="1.1" id="account" xmlns="http://www.w3.org/2000/svg" xmlns:xlink="http://www.w3.org/1999/xlink" x="0px" y="0px"
	 width="612px" height="792px" viewBox="0 0 612 792" enable-background="new 0 0 612 792" xml:space="preserve">
<g>
	<path d="M306,396c69.886,0,126.54-56.654,126.54-126.54S375.886,142.92,306,142.92c-69.886,0-126.54,56.654-126.54,126.54
		S236.114,396,306,396z M306,206.19c34.942,0,63.27,28.327,63.27,63.27s-28.327,63.27-63.27,63.27
		c-34.944,0-63.27-28.327-63.27-63.27S271.056,206.19,306,206.19z"/>
	<path d="M305.5,588.974H113.027v-34.799c0-20.21,98.666-66.266,192.473-66.429v-15.39c0-16.184,10.065-31.185,27.227-43.532
		c-9.546-0.792-18.533-1.189-26.727-1.189c-84.465,0-253.08,42.075-253.08,126.54v94.905H305.5V588.974z"/>
</g>
<path d="M458.213,409.005c-75.164,0-136.042,30.439-136.042,68.02c0,37.582,60.878,68.021,136.042,68.021
	c75.163,0,136.04-30.439,136.04-68.021C594.253,439.444,533.376,409.005,458.213,409.005 M322.171,511.034v51.018
	c0,37.58,60.878,68.02,136.042,68.02c75.163,0,136.04-30.439,136.04-68.02v-51.018c0,37.582-60.877,68.021-136.04,68.021
	C383.049,579.055,322.171,548.616,322.171,511.034 M322.171,596.061v51.016c0,37.582,60.878,68.021,136.042,68.021
	c75.163,0,136.04-30.439,136.04-68.021v-51.016c0,37.582-60.877,68.022-136.04,68.022
	C383.049,664.083,322.171,633.643,322.171,596.061z"/>
</svg>
