<?xml version="1.0" encoding="utf-8"?>
<!-- Generator: Adobe Illustrator 16.0.0, SVG Export Plug-In . SVG Version: 6.00 Build 0)  -->
<!DOCTYPE svg PUBLIC "-//W3C//DTD SVG 1.1//EN" "http://www.w3.org/Graphics/SVG/1.1/DTD/svg11.dtd">
<svg version="1.1" id="Layer_1" xmlns="http://www.w3.org/2000/svg" xmlns:xlink="http://www.w3.org/1999/xlink" x="0px" y="0px"
	 width="582.995px" height="792px" viewBox="18.506 0 582.995 792" enable-background="new 18.506 0 582.995 792"
	 xml:space="preserve">
<g id="Layer_6_copy">
	<g>
		<path d="M139.502,336.961c-15.577-10.094-3.494-69.39,5.236-85.771c6.095-11.438,31.606-48.894,54.194-63.014
			c21.732-13.585,47.187-3.218,52.714,2.369c3.167,3.205,14.177,19.85,9.126,43.262c-4.015,18.612-24.764,48.169-33.897,63.015
			C203.489,334.837,157.466,348.605,139.502,336.961z"/>
		<path d="M140.534,362.62c-7.104,1.007-14.114,7.417-19.921,11.632c-8.021,5.82-37.954,3.585-41.5,12.835
			c-9.534,24.869,36.234,91.391,57.792,107.029c17.425,12.632,51.445,40.509,72.656,36.842c6.632-1.146,16.963-1.358,28.022-10.119
			c9.456-7.493,17.855-35.038,18.68-40.734c3.664-25.349-16.744-51.87-34.249-70.569
			C208.278,394.861,160.433,359.798,140.534,362.62z"/>
		<path d="M411.175,336.962c15.626-10.098,3.507-69.391-5.252-85.772c-6.118-11.438-31.711-48.894-54.371-63.014
			c-21.8-13.585-47.34-3.218-52.882,2.369c-3.179,3.205-14.226,19.849-9.157,43.262c4.027,18.61,24.845,48.169,34.009,63.015
			C346.984,334.837,393.152,348.611,411.175,336.962z"/>
		<path d="M275.111,0c0,0-2.969-0.045-3.57,1.146c-4.062,8.089-20.405,38.693-29.021,47.31
			c-9.235,9.236-34.674,14.409-43.458,23.685c-1.443,1.524-3.042,8.258-3.042,9.995c0,1.738,4.063,5.92,5.215,7.171
			c5,5.423,18.171,10.565,24.338,14.993c6.712,4.82,20.86,25.641,20.86,25.641s-33.055,4.572-64.319,16.514
			c-23.316,8.906-44.847,23.899-55.192,33.463c-10.597,9.797-32.86,33.972-46.064,60.842c-14.024,28.53-13.944,44.678-18.688,59.538
			c-2.925,9.165-11.337,26.849-17.383,34.332c-6.431,7.958-28.639,21.685-26.075,28.683c3.763,10.263,69.994,2.208,81.703-1.304
			c13.671-4.099,16.345-11.693,19.99-17.817c6.009-10.097-2.023-33.714-0.433-56.496c1.696-24.347,14.276-48.794,19.99-59.973
			c10.927-21.37,50.656-61.923,73.881-61.277c1.765,0.048,19.518-2.435,33.026,5.215c13.671,7.741,22.012,26.495,23.251,28.248
			c1.286,1.82,4.98,1.735,4.98,1.735L275.111,0z M275.111,0c0,0,2.981-0.045,3.583,1.146c4.079,8.087,20.474,38.693,29.116,47.309
			c9.267,9.237,34.785,14.409,43.604,23.687c1.444,1.524,3.051,8.258,3.051,9.994c0,1.739-4.075,5.922-5.233,7.173
			c-5.018,5.423-18.231,10.565-24.414,14.993c-6.736,4.818-20.928,25.641-20.928,25.641s33.161,4.572,64.525,16.513
			c23.396,8.905,44.993,23.9,55.373,33.463c10.632,9.798,32.967,33.971,46.215,60.843c14.069,28.53,13.988,44.676,18.748,59.539
			c2.937,9.165,11.376,26.849,17.442,34.332c6.451,7.956,28.734,21.685,26.16,28.679c-3.774,10.267-70.222,2.208-81.971-1.303
			c-13.713-4.098-16.396-11.693-20.056-17.817c-6.026-10.095,2.031-33.711,0.438-56.495c-1.704-24.346-14.323-48.793-20.057-59.97
			c-10.964-21.37-50.822-61.925-74.118-61.277c-1.773,0.049-19.581-2.434-33.138,5.215c-13.717,7.739-22.083,26.495-23.325,28.248
			c-1.29,1.82-4.998,1.735-4.998,1.735L275.111,0z"/>
	</g>
</g>
<polyline points="522.156,617.403 522.156,458.713 442.81,458.713 442.81,617.403 363.465,617.403 482.484,736.42 601.5,617.403 
	522.156,617.403 "/>
<path d="M298.648,495.715c34.262-61.709,98.68-104.361,173.355-108.028c-0.068-0.2-0.13-0.406-0.205-0.602
	c-3.553-9.248-33.583-7.017-41.634-12.841c-5.826-4.213-12.862-10.617-19.985-11.621c-19.967-2.825-67.967,32.237-81.748,46.91
	c-17.559,18.698-38.03,45.215-34.358,70.569C294.422,482.491,296.11,488.729,298.648,495.715z"/>
<g>
	<path d="M272.343,597.566c0-11.61,0.957-22.996,2.768-34.096v-71.412c0,0-2.298-0.398-2.896,2.718
		c-1.291,6.748-15.91,27.329-19.051,38.894c-3.728,13.729-1.859,16.721-8.691,21.948c-12.577,9.614-45.023-8.514-51.356,6
		c-8.127,18.622,46.027,38.089,59.106,53.643c8.74,10.39,9.109,35.926,12.46,61.417c1.379,10.502,6.647,22.786,7.676,28.073
		c0.799,4.093,2.751,3.259,2.751,3.259v-76.348C273.3,620.563,272.343,609.177,272.343,597.566z"/>
	<path d="M288.82,515.859c-4.866-8.706-10.055-17.195-10.801-21.085c-0.6-3.118-2.908-2.723-2.908-2.723l0,71.416
		C277.821,546.865,282.461,530.912,288.82,515.859z"/>
	<path d="M275.112,631.669l0,76.342c0,0,1.961,0.835,2.761-3.262c1.034-5.291,6.318-17.573,7.704-28.069
		c0.185-1.4,0.358-2.803,0.527-4.201C281.131,659.448,277.418,645.795,275.112,631.669z"/>
</g>
</svg>
