<?xml version="1.0" encoding="utf-8"?>
<!-- Generator: Adobe Illustrator 16.0.0, SVG Export Plug-In . SVG Version: 6.00 Build 0)  -->
<!DOCTYPE svg PUBLIC "-//W3C//DTD SVG 1.1//EN" "http://www.w3.org/Graphics/SVG/1.1/DTD/svg11.dtd">
<svg version="1.1" id="Layer_1" xmlns="http://www.w3.org/2000/svg" xmlns:xlink="http://www.w3.org/1999/xlink" x="0px" y="0px"
	 width="612px" height="792px" viewBox="0 0 612 792" enable-background="new 0 0 612 792" xml:space="preserve">
<g id="f97be4ea-1f69-45fd-8c14-3b104892f246">
	<g id="af8b1417-d441-4c29-8f00-b503a2fdf9a3">
		<g id="b5f9ec32-79fe-4489-9d9a-a2161243e95a">
			<path d="M417.296,470.533C597.443,369.99,597.443,315.128,597.399,169.167H18.709c0,145.962,0,200.648,180.104,301.367
				c0,76.5,76.019,55.954,76.019,95.603c3.322,33.441-8.393,52.764-24.785,55.736c-52.895,7.3-147.23,41.048-147.886,77.155h411.788
				c-0.655-36.107-94.991-69.942-147.886-77.155c-16.349-2.973-28.151-22.251-24.785-55.736
				C341.278,526.487,417.296,547.033,417.296,470.533z M326.152,343.149l-15.212,60.894c-0.293,1.352-1.503,2.305-2.886,2.273
				c-1.382,0.031-2.592-0.922-2.885-2.273l-15.212-60.894c-3.964-15.873-16.958-27.888-33.092-30.6l-54.425-9.005
				c-1.63-0.199-2.789-1.681-2.591-3.311c0.165-1.357,1.234-2.426,2.591-2.591l54.425-9.049c16.145-2.69,29.148-14.714,33.092-30.6
				l15.212-60.894c0.311-1.334,1.517-2.265,2.885-2.229c1.364-0.019,2.56,0.905,2.886,2.229l15.212,60.894
				c3.943,15.885,16.947,27.91,33.092,30.6l54.425,9.049c1.63,0.199,2.789,1.681,2.591,3.311c-0.165,1.357-1.234,2.426-2.591,2.591
				l-54.425,9.049C343.121,315.298,330.131,327.293,326.152,343.149z M583.236,150.457H28.764
				C12.903,150.481,0.025,137.642,0,121.78c0-0.015,0-0.029,0-0.044l0,0c-0.024-15.861,12.814-28.74,28.676-28.764
				c0.029,0,0.059,0,0.088,0h554.472c15.862-0.024,28.74,12.814,28.765,28.676c0,0.029,0,0.059,0,0.087l0,0
				c0,15.862-12.859,28.721-28.721,28.721C583.265,150.457,583.25,150.457,583.236,150.457z"/>
		</g>
	</g>
</g>
</svg>
