<?xml version="1.0" encoding="utf-8"?>
<!-- Generator: Adobe Illustrator 16.0.0, SVG Export Plug-In . SVG Version: 6.00 Build 0)  -->
<!DOCTYPE svg PUBLIC "-//W3C//DTD SVG 1.1//EN" "http://www.w3.org/Graphics/SVG/1.1/DTD/svg11.dtd">
<svg version="1.1" id="Layer_1" xmlns="http://www.w3.org/2000/svg" xmlns:xlink="http://www.w3.org/1999/xlink" x="0px" y="0px"
	 width="519.5px" height="429.031px" viewBox="16 196.469 519.5 429.031" enable-background="new 16 196.469 519.5 429.031"
	 xml:space="preserve">
<polyline points="484.5,549 484.5,447 433.5,447 433.5,549 382.5,549 459,625.5 535.5,549 484.5,549 "/>
<g>
	<path d="M444.958,382.309c4.301-0.363,8.648-0.559,13.043-0.559c12.651,0,24.94,1.546,36.698,4.441l34.232-81.09l-44.223,32.131
		l9.855,9.855L444.958,382.309z"/>
	<path d="M305,534.75c0-16.096,2.492-31.608,7.1-46.18l-8.858,1.479c-9.688,1.601-17.501,8.796-19.895,18.319l-9.159,36.638
		c-0.197,0.951-1.128,1.563-2.079,1.365c-0.686-0.143-1.222-0.679-1.364-1.365l-9.16-36.638
		c-2.393-9.523-10.208-16.719-19.895-18.319l-32.681-5.459c-1.012,0-1.832-0.82-1.832-1.832s0.82-1.832,1.832-1.832l32.681-5.459
		c9.688-1.601,17.502-8.796,19.895-18.319l9.16-36.638c0.197-0.951,1.127-1.563,2.079-1.364c0.686,0.143,1.223,0.678,1.365,1.364
		l9.159,36.638c2.394,9.523,10.208,16.719,19.895,18.319l12.797,2.138c13.738-34.097,39.397-62.105,71.821-78.861l-105.539-123.21
		l29.64-29.64l-39.495-49.425l-39.496,49.425l29.64,29.64L144.233,413.732l-93.867-66.645l9.855-9.855L16,305.101l108.375,256.723
		l148.091,59.206l47.999-19.189C310.564,581.582,305,558.817,305,534.75z"/>
</g>
</svg>
