<?xml version="1.0" encoding="utf-8"?>
<!-- Generator: Adobe Illustrator 16.0.0, SVG Export Plug-In . SVG Version: 6.00 Build 0)  -->
<!DOCTYPE svg PUBLIC "-//W3C//DTD SVG 1.1//EN" "http://www.w3.org/Graphics/SVG/1.1/DTD/svg11.dtd">
<svg version="1.1" id="Layer_1" xmlns="http://www.w3.org/2000/svg" xmlns:xlink="http://www.w3.org/1999/xlink" x="0px" y="0px"
	 width="612px" height="792px" viewBox="0 0 612 792" enable-background="new 0 0 612 792" xml:space="preserve">
<g id="Layer_6_copy">
	<g>
		<path d="M153.846,376.906c-17.424-11.29-3.908-77.615,5.856-95.938c6.818-12.794,35.354-54.69,60.62-70.485
			c24.308-15.195,52.78-3.599,58.962,2.65c3.543,3.585,15.858,22.203,10.208,48.39c-4.491,20.819-27.7,53.88-37.916,70.485
			C225.417,374.531,173.939,389.931,153.846,376.906z"/>
		<path d="M155,405.607c-7.946,1.127-15.787,8.297-22.283,13.011c-8.972,6.51-42.453,4.011-46.419,14.358
			c-10.664,27.817,40.529,102.223,64.644,119.715c19.49,14.131,57.544,45.311,81.268,41.209c7.418-1.28,18.975-1.517,31.344-11.317
			c10.577-8.382,19.972-39.192,20.895-45.564c4.097-28.354-18.729-58.018-38.309-78.935C230.775,441.67,177.258,402.451,155,405.607
			z"/>
		<path d="M457.725,376.908c17.479-11.294,3.923-77.617-5.875-95.94c-6.844-12.794-35.471-54.69-60.816-70.485
			c-24.385-15.195-52.951-3.599-59.151,2.65c-3.556,3.585-15.912,22.202-10.242,48.39c4.504,20.817,27.791,53.88,38.041,70.485
			C385.922,374.531,437.566,389.938,457.725,376.908z"/>
		<path d="M456.611,405.611c7.968,1.123,15.837,8.285,22.354,12.998c9.004,6.515,42.595,4.02,46.57,14.363
			c10.701,27.818-40.657,102.223-64.854,119.719c-19.554,14.131-57.735,45.311-81.532,41.205
			c-7.438-1.28-19.034-1.513-31.444-11.317c-10.61-8.381-20.036-39.191-20.964-45.562c-4.107-28.36,18.791-58.021,38.43-78.935
			C380.586,441.67,434.277,402.451,456.611,405.611z"/>
		<path d="M305.531,550.391c0,0-2.572-0.447-3.24,3.041c-1.443,7.547-17.796,30.568-21.308,43.503
			c-4.17,15.357-2.079,18.703-9.722,24.549c-14.068,10.755-50.361-9.521-57.444,6.711c-9.091,20.83,51.483,42.605,66.112,60.003
			c9.775,11.621,10.188,40.184,13.937,68.699c1.543,11.746,7.436,25.486,8.587,31.399c0.893,4.58,3.078,3.646,3.078,3.646V550.391
			L305.531,550.391z M305.531,550.383c0,0,2.581-0.443,3.253,3.046c1.445,7.546,17.853,30.571,21.375,43.498
			c4.187,15.361,2.089,18.711,9.753,24.557c14.112,10.748,50.528-9.521,57.635,6.711c9.117,20.825-51.652,42.599-66.327,60.003
			c-9.811,11.617-10.224,40.18-13.982,68.7c-1.55,11.741-7.461,25.479-8.617,31.396c-0.895,4.584-3.088,3.649-3.088,3.649
			L305.531,550.383L305.531,550.383z"/>
		<path d="M305.531,0c0,0-3.322-0.051-3.993,1.282c-4.545,9.048-22.825,43.28-32.463,52.919
			c-10.33,10.33-38.784,16.117-48.61,26.493c-1.614,1.705-3.403,9.236-3.403,11.18s4.544,6.622,5.833,8.021
			c5.594,6.066,20.325,11.818,27.223,16.771c7.508,5.391,23.333,28.68,23.333,28.68s-36.973,5.114-71.943,18.472
			c-26.081,9.961-50.164,26.732-61.735,37.43c-11.853,10.958-36.756,37.998-51.526,68.055
			c-15.686,31.912-15.596,49.974-20.902,66.596c-3.272,10.251-12.681,30.032-19.444,38.402
			c-7.194,8.902-32.034,24.256-29.166,32.083c4.209,11.48,78.291,2.47,91.388-1.458c15.292-4.584,18.283-13.079,22.36-19.93
			c6.721-11.294-2.264-37.711-0.485-63.193c1.898-27.233,15.969-54.578,22.36-67.082c12.222-23.903,56.661-69.264,82.639-68.541
			c1.975,0.055,21.831-2.723,36.942,5.833c15.292,8.659,24.621,29.637,26.007,31.597c1.438,2.036,5.571,1.941,5.571,1.941L305.531,0
			z M305.531,0c0,0,3.335-0.051,4.007,1.282c4.562,9.046,22.9,43.28,32.568,52.917c10.364,10.332,38.908,16.117,48.771,26.495
			c1.617,1.705,3.413,9.236,3.413,11.178c0,1.946-4.558,6.624-5.853,8.023c-5.613,6.066-20.394,11.818-27.309,16.771
			c-7.535,5.389-23.409,28.68-23.409,28.68s37.092,5.114,72.175,18.47c26.17,9.961,50.327,26.734,61.937,37.43
			c11.892,10.96,36.875,37.998,51.694,68.056c15.737,31.912,15.646,49.972,20.971,66.596c3.284,10.251,12.723,30.032,19.509,38.402
			c7.216,8.898,32.141,24.255,29.262,32.079c-4.223,11.484-78.548,2.469-91.688-1.458c-15.339-4.584-18.339-13.079-22.433-19.93
			c-6.741-11.292,2.271-37.707,0.489-63.191c-1.906-27.233-16.022-54.578-22.434-67.08c-12.263-23.903-56.848-69.266-82.906-68.541
			c-1.982,0.055-21.901-2.723-37.065,5.833c-15.343,8.657-24.7,29.637-26.09,31.597c-1.443,2.036-5.59,1.941-5.59,1.941L305.531,0z"
			/>
	</g>
</g>
</svg>
