<?xml version="1.0" encoding="utf-8"?>
<!-- Generator: Adobe Illustrator 16.0.0, SVG Export Plug-In . SVG Version: 6.00 Build 0)  -->
<!DOCTYPE svg PUBLIC "-//W3C//DTD SVG 1.1//EN" "http://www.w3.org/Graphics/SVG/1.1/DTD/svg11.dtd">
<svg version="1.1" id="Layer_1" xmlns="http://www.w3.org/2000/svg" xmlns:xlink="http://www.w3.org/1999/xlink" x="0px" y="0px"
	 width="612px" height="792px" viewBox="0 0 612 792" enable-background="new 0 0 612 792" xml:space="preserve">
<g id="edbc4993-ae76-4359-8db5-c33ec5b4142b">
	<g id="bd2e750f-ea2a-4349-8823-b9f1cf1098fa">
		<g id="e7d04063-ea92-40af-b921-991b4e1cbd09">
			<path d="M493.053,310.407c-27.385,3.993-52.311,18.014-69.942,39.343c67.145-76.544,132.41-225.172,1.398-231.905
				c-0.655-5.027-8.743-16.917-17.485-12.065c-60.616,51.068-94.599,127.018-92.281,206.244
				c-21.638-111.996-136.476-187.229-182.9-173.677c-9.049,14.163-2.448,26.535-11.409,34.666c-7.868,7.125-25.354-0.7-27.06,10.885
				c-14.163,75.582,41.311,158.77,120.564,198.113C136.082,369.509,7.213,382.273,0,475.91c0,41.047,55.474,60.194,139.492,60.194
				c53.631,3.809,105.396-20.486,136.738-64.173c-111.078,119.209-23.78,143.296,95.821,77.812
				c46.905-27.146,34.972-61.2,1.181-100.324c60.981,37.288,164.146-7.606,169.48-75.188
				C542.669,346.603,530.779,310.976,493.053,310.407z M328.775,376.329c0.078,11.132-8.224,20.544-19.277,21.857l-4.372,27.846
				l-3.497-28.676c-11.418-2.967-18.421-14.459-15.824-25.967l-20.414-24.786l24.349,16.48c7.385-9.548,21.112-11.302,30.661-3.917
				c0.067,0.052,0.134,0.104,0.2,0.157l20.065-16.655l-15.563,21.507C327.502,367.774,328.781,372.003,328.775,376.329z
				 M612,458.337c-22.688,10.885-33.66,74.313-69.331,102.16c-35.218,20.88-76.688,28.622-117.067,21.856
				c-9.794,45.692-40.141,84.299-82.227,104.608c-0.856,0.496-1.953,0.204-2.449-0.652c-0.401-0.693-0.294-1.569,0.264-2.146
				c32.629-38.493,48.386-88.503,43.715-138.749c22.893-14.615,29.603-45.021,14.986-67.915c-2.343-3.67-5.163-7.013-8.386-9.939
				c15.037,2.841,36.195,58.927,38.294,92.893c0,0,81.177-51.495,102.946-59.889c-36.934,11.271-71.258,29.771-100.979,54.425
				c14.719-24.789,33.467-46.949,55.474-65.572C513.948,466.293,592.24,465.462,612,458.337z"/>
		</g>
	</g>
</g>
</svg>
