<?xml version="1.0" encoding="utf-8"?>
<!-- Generator: Adobe Illustrator 16.0.0, SVG Export Plug-In . SVG Version: 6.00 Build 0)  -->
<!DOCTYPE svg PUBLIC "-//W3C//DTD SVG 1.1//EN" "http://www.w3.org/Graphics/SVG/1.1/DTD/svg11.dtd">
<svg version="1.1" id="Layer_1" xmlns="http://www.w3.org/2000/svg" xmlns:xlink="http://www.w3.org/1999/xlink" x="0px" y="0px"
	 width="612px" height="792px" viewBox="0 0 612 792" enable-background="new 0 0 612 792" xml:space="preserve">
<g id="Flower">
	<path d="M458.213,409.005c-75.164,0-136.042,30.439-136.042,68.021c0,37.582,60.878,68.021,136.042,68.021
		c75.163,0,136.04-30.438,136.04-68.021C594.253,439.444,533.375,409.005,458.213,409.005 M322.171,511.034v51.018
		c0,37.58,60.878,68.021,136.042,68.021c75.163,0,136.04-30.439,136.04-68.021v-51.018c0,37.582-60.878,68.021-136.04,68.021
		C383.049,579.055,322.171,548.616,322.171,511.034 M322.171,596.061v51.017c0,37.582,60.878,68.021,136.042,68.021
		c75.163,0,136.04-30.438,136.04-68.021v-51.017c0,37.582-60.878,68.022-136.04,68.022
		C383.049,664.083,322.171,633.643,322.171,596.061z"/>
	<g>
		<path d="M609.294,461.177c0.061,0.209,0.116,0.419,0.176,0.629c0.828-0.559,1.67-1.056,2.53-1.469
			C611.196,460.627,610.283,460.905,609.294,461.177z"/>
		<path d="M305.5,472.356c0-42.188,68.339-76.356,152.713-76.356c27.433,0,53.166,3.615,75.41,9.939
			c5.051-9.203,8.258-19.181,9.089-29.708c-0.043-27.628-11.935-63.255-49.659-63.824c-25.835,3.767-49.479,16.462-66.876,35.794
			c66.021-77.492,127.348-221.726-1.668-228.357c-0.655-5.027-8.743-16.917-17.485-12.064
			c-60.616,51.068-94.599,127.018-92.281,206.244c-21.638-111.996-136.476-187.229-182.898-173.677
			c-9.049,14.163-2.448,26.535-11.409,34.666c-7.868,7.125-25.354-0.7-27.06,10.885c-14.163,75.582,41.311,158.77,120.563,198.113
			C136.082,371.509,7.213,384.273,0,477.91c0,41.047,55.474,60.193,139.492,60.193c43.854,3.114,86.451-12.569,117.665-42.273
			c-63.361,78.654-25.229,106.053,48.343,84.406V472.356z M285.805,373.389l-20.414-24.786l24.349,16.48
			c7.387-9.548,21.112-11.302,30.661-3.917c0.067,0.052,0.134,0.104,0.2,0.157l20.063-16.655l-15.563,21.507
			c2.399,3.599,3.678,7.828,3.672,12.154c0.078,11.132-8.224,20.544-19.277,21.856l-4.371,27.847l-3.496-28.677
			C290.211,396.389,283.208,384.897,285.805,373.389z"/>
	</g>
</g>
</svg>
