<?xml version="1.0" encoding="utf-8"?>
<!-- Generator: Adobe Illustrator 16.0.0, SVG Export Plug-In . SVG Version: 6.00 Build 0)  -->
<!DOCTYPE svg PUBLIC "-//W3C//DTD SVG 1.1//EN" "http://www.w3.org/Graphics/SVG/1.1/DTD/svg11.dtd">
<svg version="1.1" id="Layer_1" xmlns="http://www.w3.org/2000/svg" xmlns:xlink="http://www.w3.org/1999/xlink" x="0px" y="0px"
	 width="612px" height="792px" viewBox="0 0 612 792" enable-background="new 0 0 612 792" xml:space="preserve">
<g id="Sands">
	<path d="M458.213,409.005c-75.164,0-136.042,30.439-136.042,68.021c0,37.582,60.878,68.021,136.042,68.021
		c75.163,0,136.04-30.438,136.04-68.021C594.253,439.444,533.375,409.005,458.213,409.005 M322.171,511.034v51.018
		c0,37.58,60.878,68.021,136.042,68.021c75.163,0,136.04-30.439,136.04-68.021v-51.018c0,37.582-60.878,68.021-136.04,68.021
		C383.049,579.055,322.171,548.616,322.171,511.034 M322.171,596.061v51.017c0,37.582,60.878,68.021,136.042,68.021
		c75.163,0,136.04-30.438,136.04-68.021v-51.017c0,37.582-60.878,68.022-136.04,68.022
		C383.049,664.083,322.171,633.643,322.171,596.061z"/>
	<g>
		<path d="M88.883,132.094h434.188c5.497,0,9.961-4.443,9.986-9.94V82.3c-0.025-5.497-4.49-9.94-9.986-9.94H88.883
			c-5.489,0-9.939,4.45-9.939,9.94v39.854C78.944,127.644,83.394,132.094,88.883,132.094z"/>
		<path d="M306.233,659.906H306v-0.001H162.673c0-127.468,127.469-99.588,127.469-151.37V349.211c0,0-75.778-43.829-75.778-75.685
			H397.59c0,31.856-75.686,75.685-75.686,75.685v88.675c7.261-7.168,16.715-13.685,27.925-19.329
			c-9.807-9.016-15.948-18.308-15.948-29.538v-3.282c-0.021-13.458,6.809-26.001,18.123-33.289
			c40.132-25.891,128.208-60.614,133.017-180.083c0.229-5.511-4.051-10.165-9.563-10.396c-0.126-0.004-0.253-0.007-0.379-0.008
			H136.922c-5.542,0.022-10.018,4.531-9.995,10.072c0,0.11,0.002,0.22,0.007,0.331c4.624,119.469,92.885,154.192,133.017,180.313
			c11.324,7.283,18.171,19.824,18.17,33.289v3.283c0,55.759-151.371,63.757-151.371,227.242v43.644H88.883
			c-5.4-0.001-9.814,4.311-9.939,9.71V709.7c0,5.49,4.45,9.939,9.939,9.939h296.848C342.107,707.863,311.27,685.782,306.233,659.906
			z"/>
	</g>
</g>
</svg>
