<?xml version="1.0" encoding="utf-8"?>
<!-- Generator: Adobe Illustrator 16.0.0, SVG Export Plug-In . SVG Version: 6.00 Build 0)  -->
<!DOCTYPE svg PUBLIC "-//W3C//DTD SVG 1.1//EN" "http://www.w3.org/Graphics/SVG/1.1/DTD/svg11.dtd">
<svg version="1.1" id="Layer_1" xmlns="http://www.w3.org/2000/svg" xmlns:xlink="http://www.w3.org/1999/xlink" x="0px" y="0px"
	 width="612px" height="792px" viewBox="0 0 612 792" enable-background="new 0 0 612 792" xml:space="preserve">
<g id="aa6f7a04-0a8b-433c-9d3a-4f63013f4051">
	<g id="e197174d-f1f2-418e-9cae-89fa5ebb78d9">
		<g id="a3604031-a7b8-4f16-b183-d5e6247b0aa3">
			<path d="M558.811,64.754c-16.054,1.144-31.928,4.097-47.32,8.802c-24.844,5.188-48.551,14.805-69.987,28.392
				c-11.168,6.625-11.404,15.332-14.765,12.966c-6.983-2.979-14.765-3.528-22.099-1.562
				c-162.499,128.24-166.143,135.622-249.191,258.703c-5.395,2.177-13.486-5.205-13.486-5.205
				c-2.792,25.837-10.174,25.837-24.891,55.271c-18.223,28.584-24.572,63.15-17.698,96.345
				c-11.932-2.083-23.472-5.993-34.213-11.593l22.1,18.455c-14.402,3.815-29.363,5.065-44.198,3.69l29.481,22.099
				c0,0-18.455,18.408-25.838,18.408l24.56,3.502C42.586,621.151,18.716,671.982,0,724.785c-0.33,0.992,0.206,2.063,1.198,2.394
				c0.3,0.1,0.62,0.122,0.931,0.067l28.062-14.196c0.475-0.236,0.82-0.669,0.946-1.184c12.86-50.181,41.409-94.943,81.486-127.766
				l22.667,25.979c-5.041-11.625-7.542-24.193-7.335-36.862l40.507,7.382c-18.408-18.455-16.563-26.5-16.563-26.5
				c25.096,4.483,50.831,3.937,75.714-1.608c28.402-10.442,55.481-24.18,80.682-40.933c3.975-1.894-6.909-3.881-3.123-5.868
				c3.785-1.987,15.568-4.495,19.543-6.861c42.773-28.669,83.174-60.729,120.811-95.872c43.65-36.609,81.426-79.7,112.008-127.766
				c2.035-3.501-17.035-9.464-24.891-10.931c8.376,0.994,29.149,5.726,30.947,2.271c20.857-33.806,34.697-71.464,40.696-110.73
				C606.937,123.669,636.417,61.016,558.811,64.754z M120.573,517.945c92.37-198.983,357.366-361.104,357.366-361.104
				c83.758-65.54-187.343,115.368-357.366,364.796V517.945z"/>
		</g>
	</g>
</g>
</svg>
