<?xml version="1.0" encoding="utf-8"?>
<!-- Generator: Adobe Illustrator 16.0.0, SVG Export Plug-In . SVG Version: 6.00 Build 0)  -->
<!DOCTYPE svg PUBLIC "-//W3C//DTD SVG 1.1//EN" "http://www.w3.org/Graphics/SVG/1.1/DTD/svg11.dtd">
<svg version="1.1" id="Layer_1" xmlns="http://www.w3.org/2000/svg" xmlns:xlink="http://www.w3.org/1999/xlink" x="0px" y="0px"
	 width="612px" height="792px" viewBox="0 0 612 792" enable-background="new 0 0 612 792" xml:space="preserve">
<g id="e3f554c1-ce6c-485a-bd5a-a11fae6e4d54">
	<g id="a5714ac7-7b8f-4604-a7f0-a0a903d50e2c">
		<g id="b812f736-f22d-44bf-a40d-96d3fcf3e6bb">
			<path d="M559.237,310.67l11.759,11.759L459,401.945L317.759,237.055l35.364-35.365L306,142.719l-47.124,58.971l35.364,35.365
				L153,401.945L41.004,322.429l11.759-11.759L0,272.332l129.307,306.307L306,649.28l176.692-70.642L612,272.332L559.237,310.67z
				 M381.713,486.488l-38.993,6.514c-11.559,1.91-20.882,10.495-23.737,21.857l-10.929,43.714c-0.235,1.135-1.346,1.864-2.48,1.629
				c-0.818-0.17-1.458-0.81-1.628-1.629l-10.929-43.714c-2.854-11.362-12.179-19.947-23.737-21.857l-38.993-6.514
				c-1.207,0-2.186-0.979-2.186-2.186s0.979-2.186,2.186-2.186l0,0l38.993-6.514c11.559-1.909,20.883-10.495,23.737-21.857
				l10.929-43.714c0.235-1.135,1.346-1.864,2.48-1.628c0.818,0.17,1.459,0.809,1.628,1.628l10.929,43.714
				c2.855,11.362,12.179,19.948,23.737,21.857l38.993,6.514c1.207,0,2.186,0.979,2.186,2.186S382.92,486.488,381.713,486.488z"/>
		</g>
	</g>
</g>
</svg>
