<?xml version="1.0" encoding="utf-8"?>
<!-- Generator: Adobe Illustrator 16.0.0, SVG Export Plug-In . SVG Version: 6.00 Build 0)  -->
<!DOCTYPE svg PUBLIC "-//W3C//DTD SVG 1.1//EN" "http://www.w3.org/Graphics/SVG/1.1/DTD/svg11.dtd">
<svg version="1.1" id="Layer_1" xmlns="http://www.w3.org/2000/svg" xmlns:xlink="http://www.w3.org/1999/xlink" x="0px" y="0px"
	 width="612px" height="792px" viewBox="0 0 612 792" enable-background="new 0 0 612 792" xml:space="preserve">
<g id="Circlet">
	<path d="M458.213,409.005c-75.164,0-136.042,30.439-136.042,68.021c0,37.582,60.878,68.021,136.042,68.021
		c75.163,0,136.04-30.438,136.04-68.021C594.253,439.444,533.375,409.005,458.213,409.005 M322.171,511.034v51.018
		c0,37.58,60.878,68.021,136.042,68.021c75.163,0,136.04-30.439,136.04-68.021v-51.018c0,37.582-60.878,68.021-136.04,68.021
		C383.049,579.055,322.171,548.616,322.171,511.034 M322.171,596.061v51.017c0,37.582,60.878,68.021,136.042,68.021
		c75.163,0,136.04-30.438,136.04-68.021v-51.017c0,37.582-60.878,68.022-136.04,68.022
		C383.049,664.083,322.171,633.643,322.171,596.061z"/>
	<g>
		<path d="M467.185,396.134c32.274,0.935,61.852,6.871,85.676,16.288L612,272.332l-52.765,38.338l11.759,11.759L467.185,396.134z"/>
		<path d="M305.5,560.176c-0.78-0.192-1.391-0.811-1.556-1.603l-10.929-43.714c-2.854-11.362-12.179-19.947-23.737-21.857
			l-38.991-6.514c-1.207,0-2.188-0.979-2.188-2.188s0.979-2.186,2.188-2.186l38.991-6.516c11.561-1.907,20.885-10.493,23.737-21.855
			l10.929-43.715c0.235-1.135,1.347-1.863,2.48-1.629c0.816,0.172,1.459,0.811,1.628,1.629l8.452,33.81
			c22.082-27.425,75.066-46.952,137.429-47.809L317.759,237.055l35.362-35.365L306,142.719l-47.124,58.971l35.362,35.365
			L153,401.945L41.004,322.429l11.759-11.759L0,272.332l129.307,306.307L305.5,649.08V560.176z"/>
	</g>
</g>
</svg>
