<?xml version="1.0" encoding="utf-8"?>
<!-- Generator: Adobe Illustrator 16.0.0, SVG Export Plug-In . SVG Version: 6.00 Build 0)  -->
<!DOCTYPE svg PUBLIC "-//W3C//DTD SVG 1.1//EN" "http://www.w3.org/Graphics/SVG/1.1/DTD/svg11.dtd">
<svg version="1.1" id="Layer_1" xmlns="http://www.w3.org/2000/svg" xmlns:xlink="http://www.w3.org/1999/xlink" x="0px" y="0px"
	 width="612px" height="792px" viewBox="0 0 612 792" enable-background="new 0 0 612 792" xml:space="preserve">
<g id="ac0e9394-30be-4802-9b96-28cffbce2d90">
	<g id="fca1eb79-25f9-474c-b78d-1ecd9481c230">
		<g id="a2d9711c-ec8e-4259-9af2-11283373e0ce">
			<path d="M571.603,718.91h-46.275v-53.404c0-200.036-185.215-209.823-185.215-278.048v-4.016
				c-0.023-16.467,8.332-31.814,22.176-40.731c49.104-31.68,156.872-74.166,162.756-220.346c0.281-6.743-4.957-12.437-11.699-12.718
				c-0.154-0.006-0.31-0.01-0.464-0.011H99.118c-6.78,0.027-12.255,5.544-12.228,12.324c0,0.135,0.003,0.27,0.008,0.405
				c5.657,146.18,113.652,188.666,162.756,220.628c13.857,8.911,22.233,24.256,22.232,40.731v4.017
				c0,68.225-185.215,78.012-185.215,278.048v53.403H40.34c-6.608-0.002-12.009,5.273-12.162,11.88v48.765
				c0,6.718,5.445,12.163,12.162,12.163l0,0h531.263c6.727,0,12.188-5.437,12.22-12.163v-48.765
				C583.791,724.346,578.329,718.91,571.603,718.91z M306,718.91H130.628c0-155.968,155.968-121.855,155.968-185.215V338.75
				c0,0-92.721-53.629-92.721-92.607h224.192c0,38.978-92.607,92.607-92.607,92.607v194.946
				c0,63.359,155.968,29.247,155.968,185.215H306z M583.823,12.163v48.764c-0.031,6.727-5.493,12.163-12.22,12.163H40.34
				c-6.717,0-12.162-5.446-12.162-12.163l0,0V12.163C28.178,5.445,33.623,0,40.34,0l0,0h531.263
				C578.329,0,583.791,5.437,583.823,12.163z"/>
		</g>
	</g>
</g>
</svg>
