<?xml version="1.0" encoding="utf-8"?>
<!-- Generator: Adobe Illustrator 16.0.0, SVG Export Plug-In . SVG Version: 6.00 Build 0)  -->
<!DOCTYPE svg PUBLIC "-//W3C//DTD SVG 1.1//EN" "http://www.w3.org/Graphics/SVG/1.1/DTD/svg11.dtd">
<svg version="1.1" id="Layer_1" xmlns="http://www.w3.org/2000/svg" xmlns:xlink="http://www.w3.org/1999/xlink" x="0px" y="0px"
	 width="612px" height="792px" viewBox="0 0 612 792" enable-background="new 0 0 612 792" xml:space="preserve">
<g id="Plume">
	<path d="M458.213,409.005c-75.164,0-136.042,30.439-136.042,68.021c0,37.582,60.878,68.021,136.042,68.021
		c75.163,0,136.04-30.438,136.04-68.021C594.253,439.444,533.375,409.005,458.213,409.005 M322.171,511.034v51.018
		c0,37.58,60.878,68.021,136.042,68.021c75.163,0,136.04-30.439,136.04-68.021v-51.018c0,37.582-60.878,68.021-136.04,68.021
		C383.049,579.055,322.171,548.616,322.171,511.034 M322.171,596.061v51.017c0,37.582,60.878,68.021,136.042,68.021
		c75.163,0,136.04-30.438,136.04-68.021v-51.017c0,37.582-60.878,68.022-136.04,68.022
		C383.049,664.083,322.171,633.643,322.171,596.061z"/>
	<path d="M305.5,509.865c-1.096-0.723-1.676-1.448-0.29-2.175c0.086-0.046,0.195-0.093,0.29-0.139v-35.195
		c0-41.808,67.111-75.732,150.432-76.342c39.277-34.622,73.509-74.611,101.64-118.824c2.035-3.501-17.034-9.464-24.891-10.931
		c8.376,0.994,29.148,5.727,30.947,2.271c20.855-33.806,34.696-71.464,40.694-110.73c2.651-32.132,32.131-94.785-45.475-91.047
		c-16.054,1.144-31.928,4.097-47.32,8.802c-24.844,5.188-48.551,14.805-69.985,28.392c-11.168,6.625-11.404,15.332-14.767,12.966
		c-6.981-2.979-14.765-3.528-22.099-1.562c-162.499,128.24-166.143,135.622-249.19,258.703c-5.396,2.177-13.485-5.205-13.485-5.205
		c-2.792,25.837-10.174,25.837-24.893,55.271c-18.223,28.584-24.57,63.149-17.696,96.345c-11.934-2.083-23.474-5.993-34.213-11.593
		l22.1,18.455c-14.402,3.813-29.363,5.063-44.198,3.688l29.481,22.101c0,0-18.455,18.408-25.838,18.408l24.56,3.502
		c-28.68,48.124-52.55,98.955-71.266,151.758c-0.33,0.992,0.206,2.063,1.198,2.394c0.3,0.102,0.618,0.122,0.931,0.067l28.062-14.196
		c0.477-0.234,0.82-0.669,0.946-1.184c12.86-50.183,41.409-94.943,81.486-127.768l22.667,25.979
		c-5.041-11.625-7.542-24.193-7.335-36.862l40.507,7.382c-18.408-18.455-16.563-26.5-16.563-26.5
		c25.098,4.483,50.831,3.938,75.714-1.606c27.344-10.053,53.454-23.169,77.851-39.08L305.5,509.865L305.5,509.865z M120.611,523.637
		v-3.69c73.631-158.615,256.948-293.806,328.299-342.132C375.775,235.833,228.024,366.06,120.611,523.637z"/>
</g>
</svg>
