<?xml version="1.0" encoding="utf-8"?>
<!-- Generator: Adobe Illustrator 16.0.0, SVG Export Plug-In . SVG Version: 6.00 Build 0)  -->
<!DOCTYPE svg PUBLIC "-//W3C//DTD SVG 1.1//EN" "http://www.w3.org/Graphics/SVG/1.1/DTD/svg11.dtd">
<svg version="1.1" id="Layer_1" xmlns="http://www.w3.org/2000/svg" xmlns:xlink="http://www.w3.org/1999/xlink" x="0px" y="0px"
	 width="612px" height="792px" viewBox="0 0 612 792" enable-background="new 0 0 612 792" xml:space="preserve">
<g id="Goblet">
	<path d="M458.213,409.005c-75.164,0-136.042,30.439-136.042,68.021c0,37.582,60.878,68.021,136.042,68.021
		c75.163,0,136.04-30.438,136.04-68.021C594.253,439.444,533.375,409.005,458.213,409.005 M322.171,511.034v51.018
		c0,37.58,60.878,68.021,136.042,68.021c75.163,0,136.04-30.439,136.04-68.021v-51.018c0,37.582-60.878,68.021-136.04,68.021
		C383.049,579.055,322.171,548.616,322.171,511.034 M322.171,596.061v51.017c0,37.582,60.878,68.021,136.042,68.021
		c75.163,0,136.04-30.438,136.04-68.021v-51.017c0,37.582-60.878,68.022-136.04,68.022
		C383.049,664.083,322.171,633.643,322.171,596.061z"/>
	<g>
		<path d="M250.047,621.873c-52.896,7.3-147.23,41.048-147.886,77.155h235.084c-18.697-12.115-30.272-27.118-31.604-43.449H305.5
			V472.356c0-42.188,68.339-76.356,152.713-76.356c22.092,0,43.08,2.346,62.033,6.563c77.188-65.094,77.186-123.356,77.151-233.396
			H18.709c0,145.962,0,200.648,180.104,301.367c0,76.5,76.021,55.954,76.021,95.603
			C278.154,599.578,266.439,618.901,250.047,621.873z M256.865,312.549l-54.425-9.005c-1.63-0.199-2.789-1.681-2.591-3.311
			c0.165-1.357,1.234-2.426,2.591-2.591l54.425-9.049c16.146-2.69,29.148-14.714,33.094-30.6l15.212-60.894
			c0.311-1.334,1.517-2.265,2.885-2.229c1.364-0.019,2.56,0.905,2.886,2.229l15.212,60.894c3.943,15.885,16.947,27.91,33.092,30.6
			l54.427,9.049c1.63,0.199,2.788,1.681,2.591,3.311c-0.165,1.357-1.234,2.426-2.591,2.591l-54.427,9.049
			c-16.123,2.705-29.111,14.7-33.092,30.556l-15.212,60.894c-0.293,1.352-1.503,2.305-2.886,2.273
			c-1.382,0.031-2.592-0.922-2.885-2.273l-15.212-60.894C285.993,327.276,272.999,315.261,256.865,312.549z"/>
		<path d="M583.236,92.972H28.764c-0.029,0-0.059,0-0.088,0C12.814,92.996-0.024,105.875,0,121.736c0,0.015,0,0.029,0,0.044
			c0.023,15.862,12.901,28.701,28.764,28.677h554.472c0.015,0,0.029,0,0.044-0.001c15.862,0,28.721-12.859,28.721-28.721
			c0-0.028,0-0.058,0-0.087C611.976,105.786,599.098,92.948,583.236,92.972z"/>
	</g>
</g>
</svg>
