<?xml version="1.0" encoding="utf-8"?>
<!-- Generator: Adobe Illustrator 16.0.0, SVG Export Plug-In . SVG Version: 6.00 Build 0)  -->
<!DOCTYPE svg PUBLIC "-//W3C//DTD SVG 1.1//EN" "http://www.w3.org/Graphics/SVG/1.1/DTD/svg11.dtd">
<svg version="1.1" id="Layer_1" xmlns="http://www.w3.org/2000/svg" xmlns:xlink="http://www.w3.org/1999/xlink" x="0px" y="0px"
	 width="105.563px" height="115.708px" viewBox="0 0 105.563 115.708" enable-background="new 0 0 105.563 115.708"
	 xml:space="preserve">
<path d="M11.657,69.727c3.67,0.217,7.124,0.648,10.794,1.296c3.67-8.851,6.692-17.054,8.851-24.826
	c0.863-3.454,1.728-6.908,2.591-10.578c0.647-3.67,1.511-7.987,2.374-13.384l1.728-10.793L49.436,0
	c1.079,7.34,4.317,16.838,9.498,28.927s11.01,23.962,17.701,35.834c2.807-0.432,5.829-0.863,9.067-1.295l10.793-1.295
	c3.886-0.432,6.908-0.863,9.067-1.079L94.121,72.533l-12.305,1.295c1.727,3.023,3.454,5.613,4.965,7.988
	c1.079,1.727,3.67,5.181,7.34,10.146s6.476,9.066,7.987,12.089l-11.441,11.441l-9.498-6.477c-4.534-3.237-8.636-5.828-11.873-7.987
	c-3.454-2.158-6.908-3.886-10.362-5.612c-10.146-4.965-22.235-8.635-36.267-11.441l-9.498,19.86L1.512,115.708l15.326-32.381
	l-0.863-0.216c-5.828,0-11.226-0.647-15.975-1.943L11.657,69.727z M60.013,67.353c-6.907-13.168-12.521-25.257-16.406-35.835
	l-0.863,3.238c-3.022,10.793-7.771,23.098-14.248,37.13c2.591,0,5.182-0.216,8.203-0.647c3.022-0.432,5.397-0.647,7.34-1.08
	c1.943-0.215,4.749-0.863,8.419-1.51C56.127,68,58.718,67.568,60.013,67.353z M53.753,77.93c5.612,1.728,10.793,3.67,15.327,5.829
	l-4.102-7.34C60.876,76.852,57.207,77.283,53.753,77.93z"/>
</svg>
