<!DOCTYPE svg PUBLIC "-//W3C//DTD SVG 1.1//EN" "http://www.w3.org/Graphics/SVG/1.1/DTD/svg11.dtd">	
		<svg xmlns="http://www.w3.org/2000/svg" viewBox="0 0 283.5 85" >
		<g>
		<path d="M15.7,45.4c1.7,0.1,3.3,0.3,5,0.6c1.7-4.1,3.1-7.9,4.1-11.5c0.4-1.6,0.8-3.2,1.2-4.9c0.3-1.7,0.7-3.7,1.1-6.2l0.8-5
		l5.3-5.3c0.5,3.4,2,7.8,4.4,13.4c2.4,5.6,5.1,11.1,8.2,16.6c1.3-0.2,2.7-0.4,4.2-0.6l5-0.6c1.8-0.2,3.2-0.4,4.2-0.5l-5.3,5.3
		l-5.7,0.6c0.8,1.4,1.6,2.6,2.3,3.7c0.5,0.8,1.7,2.4,3.4,4.7c1.7,2.3,3,4.2,3.7,5.6l-5.3,5.3l-4.4-3c-2.1-1.5-4-2.7-5.5-3.7
		c-1.6-1-3.2-1.8-4.8-2.6c-4.7-2.3-10.3-4-16.8-5.3l-4.4,9.2L11,66.7l7.1-15l-0.4-0.1c-2.7,0-5.2-0.3-7.4-0.9L15.7,45.4z M38.1,44.3
		c-3.2-6.1-5.8-11.7-7.6-16.6l-0.4,1.5c-1.4,5-3.6,10.7-6.6,17.2c1.2,0,2.4-0.1,3.8-0.3c1.4-0.2,2.5-0.3,3.4-0.5
		c0.9-0.1,2.2-0.4,3.9-0.7C36.3,44.6,37.5,44.4,38.1,44.3z M35.2,49.2c2.6,0.8,5,1.7,7.1,2.7l-1.9-3.4
		C38.5,48.7,36.8,48.9,35.2,49.2z"/>
	<path d="M75,35.7c-1.8-0.7-3.2-1.5-4.2-2.4c-1-0.9-1.7-1.9-2.1-3.2c-0.4-1.2-0.1-2.7,0.8-4.5c0.9-1.7,2.4-3.7,4.5-5.8l5.3-5.3
		c1.7-1,3.5-1.8,5.5-2.5c2-0.7,4-1.1,6.2-1.4c2.1-0.3,4.2,0,6.2,0.7c2,0.7,3.6,1.9,4.9,3.6l0.6,1.3l4.8-4.8l-0.9,2.9l-1.2,3.3
		c-0.3,1-0.5,2-0.7,2.9l-5.3,5.3c-1.5-3.5-2.4-5.3-2.6-5.6c-1.5-2.1-3.6-3.4-6.2-4c-2.6-0.6-5.1-0.6-7.6,0c-2.4,0.6-4.8,1.4-7.2,2.6
		c-1,1.5-1.5,2.8-1.7,4.1c-0.2,1.2,0,2.3,0.5,3.2c0.5,0.9,1.3,1.7,2.2,2.4c0.9,0.7,2.1,1.3,3.6,1.9l0.8-0.8l-0.7,0.8
		c1.6,0.7,3.8,1.4,6.6,2.2l7.5,2c2.3,0.6,4.6,1.4,6.8,2.2c2.3,0.9,4.1,2,5.6,3.3c1.5,1.3,2.4,2.8,2.7,4.5c0.2,1.2,0.1,2.3-0.1,3.4
		c-0.3,1.1-0.6,2-1,2.6c-0.4,0.6-1.1,1.5-2,2.7l-5.3,5.3c-0.3,0.2-0.8,0.7-1.5,1.3c-0.7,0.6-1.1,1-1.3,1.2l-1.2,0.7
		c-0.5,0.4-1.1,0.7-1.6,0.9c-0.5,0.2-1.2,0.5-2,0.8c-1.6,0.6-3.5,1-5.7,1.2C85.6,65,83.3,65,81,64.9c-2.3-0.2-4.6-0.6-6.7-1.3
		c-2.2-0.7-4-1.6-5.6-2.9c-1.6-1.2-2.7-2.8-3.3-4.7c-0.6-1.9-0.6-4.1,0.1-6.6c0.3-1,0.6-2,1.1-2.9c0.4-0.9,0.8-1.7,1.2-2.3
		c0.4-0.6,0.9-1.4,1.7-2.3c0.7-0.9,1.3-1.6,1.6-1.9l2-2.1C74,36.8,74.7,36.1,75,35.7z M75.3,35.8c-2.2,2.6-3.7,5.3-4.5,8.2
		c-0.7,2.6-0.8,4.8-0.1,6.7c0.6,1.9,1.7,3.4,3.3,4.6c1.5,1.2,3.4,2.2,5.5,2.9c2.2,0.7,4.4,1.1,6.7,1.3c2.3,0.2,4.6,0.2,6.8-0.1
		c2.2-0.2,4.1-0.7,5.8-1.3c1.7-0.6,3-1.2,4-1.9c1.4-2.1,1.9-4.2,1.4-6.4c-0.3-1.7-1.2-3.2-2.7-4.5c-1.4-1.3-3.3-2.4-5.5-3.2
		c-2.3-0.9-4.5-1.6-6.7-2.2l-7.5-2C79,37.2,76.9,36.5,75.3,35.8z"/>
	<path d="M150.2,15.4l5.2-5.2c-0.2,0.9-0.6,2-1,3.5c-0.5,1.5-0.9,2.8-1.2,4.1c-0.3,1.2-0.6,2.4-0.7,3.5c-0.5,3.9-0.6,8-0.3,12.5
		c2-0.4,3.9-0.9,5.8-1.4l-5.2,5.2h-0.2c0.2,2.1,0.6,4.4,1.1,6.9c0.5,2.5,0.9,4.5,1.2,5.8l1.6,7.1c0.8,3.3,1.3,5.3,1.5,5.9l-5.2,5.2
		c-0.2-0.9-0.6-2.8-1.3-5.6l-1.5-6.2c-0.3-1.3-0.7-3.2-1.2-5.5c-0.5-2.3-0.9-4.4-1.1-6.4c-0.3-1.9-0.5-3.9-0.6-5.8
		c-5.4,1.2-11.1,1.9-16.9,2.2c0.1,1.5,0.2,3.8,0.3,6.8c0.1,3,0.2,5.8,0.3,8.1c0.1,2.4,0.3,4.6,0.5,6.7l-5.2,5.2
		c-0.3-3.3-0.5-7.9-0.8-14c-0.2-6-0.4-10.3-0.6-12.7c-3,0-6-0.1-9-0.3l5.2-5.2c1.1,0.1,2.2,0.2,3.3,0.2c-0.3-2.4-1-6-1.9-10.5
		c-0.9-4.6-1.5-7.8-1.9-9.9l5.2-5.2c0.2,1.8,0.9,5.4,1.9,10.6c1.1,5.3,1.7,9.3,2,12.2c0,0.9,0.1,1.9,0.2,2.9c5.8,0,11.5-0.4,17-1.3
		c0-2.9,0.1-5.7,0.4-8.3c0.2-1.2,0.4-2.4,0.8-3.6c0.3-1.2,0.7-2.6,1.2-4.1C149.7,17.4,150,16.2,150.2,15.4z"/>
	<path d="M170,45.4c1.7,0.1,3.3,0.3,5,0.6c1.7-4.1,3.1-7.9,4.1-11.5c0.4-1.6,0.8-3.2,1.2-4.9c0.3-1.7,0.7-3.7,1.1-6.2l0.8-5l5.3-5.3
		c0.5,3.4,2,7.8,4.4,13.4c2.4,5.6,5.1,11.1,8.2,16.6c1.3-0.2,2.7-0.4,4.2-0.6l5-0.6c1.8-0.2,3.2-0.4,4.2-0.5l-5.3,5.3l-5.7,0.6
		c0.8,1.4,1.6,2.6,2.3,3.7c0.5,0.8,1.7,2.4,3.4,4.7c1.7,2.3,3,4.2,3.7,5.6l-5.3,5.3l-4.4-3c-2.1-1.5-4-2.7-5.5-3.7
		c-1.6-1-3.2-1.8-4.8-2.6c-4.7-2.3-10.3-4-16.8-5.3l-4.4,9.2l-5.3,5.3l7.1-15l-0.4-0.1c-2.7,0-5.2-0.3-7.4-0.9L170,45.4z
		 M192.5,44.3c-3.2-6.1-5.8-11.7-7.6-16.6l-0.4,1.5c-1.4,5-3.6,10.7-6.6,17.2c1.2,0,2.4-0.1,3.8-0.3c1.4-0.2,2.5-0.3,3.4-0.5
		c0.9-0.1,2.2-0.4,3.9-0.7C190.7,44.6,191.9,44.4,192.5,44.3z M189.5,49.2c2.6,0.8,5,1.7,7.1,2.7l-1.9-3.4
		C192.9,48.7,191.1,48.9,189.5,49.2z"/>
	<path d="M222.4,15.8l5.3-5.3c1.3,10,1.8,22.5,1.4,37.3c-0.1,3.2-0.3,6.3-0.6,9.2c0,0.2-0.2,0.6-0.4,1.1c-0.2,0.5-0.3,0.9-0.3,1.1
		c0,0.2,0.1,0.5,0.3,0.8c0.2,0.1,0.5,0.1,0.8-0.1c0.3-0.2,0.6-0.5,0.9-0.9c0.3-0.4,0.6-0.6,0.9-0.7c0.8-0.3,2.1-0.7,3.9-1
		c0.9-0.1,1.8-0.2,2.8-0.3c1,0,2.2,0,3.5,0s2.3,0.1,2.8,0.1c5.1,0,8.9-0.3,11.6-0.9c2.6-0.6,6.2-2.1,10.7-4.5l-5.3,5.3
		c-4.5,2.4-8.1,3.8-10.7,4.5c-2.6,0.6-6.5,0.9-11.6,0.9c-0.5,0-1.5,0-2.8-0.1c-1.3-0.1-2.5-0.1-3.5-0.1c-1,0-1.9,0.1-2.8,0.3
		c-1.7,0.3-3,0.6-3.9,1c-0.2,0.1-0.5,0.3-0.8,0.7c-0.3,0.4-0.6,0.6-0.9,0.9s-0.5,0.3-0.8,0.1c-0.2-0.3-0.3-0.6-0.3-0.8
		c0-0.2,0.2-0.6,0.4-1.1c0.2-0.5,0.3-0.9,0.3-1c0.3-2.9,0.5-6,0.6-9.2C224.2,38.2,223.8,25.7,222.4,15.8z"/>
		</g>
</svg>