<?xml version="1.0" encoding="utf-8"?>
<!DOCTYPE svg PUBLIC "-//W3C//DTD SVG 1.1//EN" "http://www.w3.org/Graphics/SVG/1.1/DTD/svg11.dtd">
<svg version="1.1" id="Layer_1" xmlns="http://www.w3.org/2000/svg" xmlns:xlink="http://www.w3.org/1999/xlink" x="0px" y="0px"
	 width="551.987px" height="125.854px" viewBox="0 0 551.987 125.854" enable-background="new 0 0 551.987 125.854"
	 xml:space="preserve">
<g>
	<path d="M11.657,75.987c3.67,0.217,7.124,0.648,10.794,1.296c3.67-8.851,6.692-17.054,8.851-24.826
		c0.863-3.454,1.728-6.908,2.591-10.578c0.647-3.67,1.511-7.987,2.374-13.384l1.728-10.793L49.436,6.26
		c1.079,7.34,4.317,16.838,9.498,28.927s11.01,23.962,17.701,35.834c2.807-0.432,5.829-0.863,9.067-1.295l10.793-1.295
		c3.886-0.432,6.908-0.863,9.067-1.079L94.121,78.793l-12.305,1.295c1.727,3.023,3.454,5.613,4.965,7.988
		c1.079,1.727,3.67,5.181,7.34,10.146s6.476,9.066,7.987,12.089l-11.441,11.441l-9.498-6.477c-4.534-3.237-8.636-5.828-11.873-7.987
		c-3.454-2.158-6.908-3.886-10.362-5.612c-10.146-4.965-22.235-8.635-36.267-11.441l-9.498,19.86L1.512,121.968l15.326-32.381
		l-0.863-0.216c-5.828,0-11.226-0.647-15.975-1.943L11.657,75.987z M60.013,73.613c-6.907-13.168-12.521-25.257-16.406-35.835
		l-0.863,3.238c-3.022,10.793-7.771,23.098-14.248,37.13c2.591,0,5.182-0.216,8.203-0.647c3.022-0.432,5.397-0.647,7.34-1.08
		c1.943-0.215,4.749-0.863,8.419-1.51C56.127,74.26,58.718,73.829,60.013,73.613z M53.753,84.19
		c5.612,1.728,10.793,3.67,15.327,5.829l-4.102-7.34C60.876,83.112,57.207,83.543,53.753,84.19z"/>
	<path d="M139.67,55.048c-3.886-1.511-6.908-3.238-9.066-5.181c-2.159-1.943-3.67-4.102-4.533-6.908
		c-0.863-2.591-0.216-5.829,1.727-9.714c1.943-3.67,5.182-7.987,9.715-12.521l11.441-11.441c3.669-2.159,7.555-3.886,11.873-5.397
		c4.317-1.511,8.635-2.375,13.384-3.022c4.533-0.648,9.066,0,13.384,1.511c4.317,1.511,7.771,4.102,10.578,7.771l1.295,2.807
		L209.829,2.59l-1.943,6.261l-2.59,7.124c-0.648,2.159-1.08,4.317-1.512,6.26l-11.441,11.441
		c-3.237-7.556-5.181-11.441-5.612-12.089c-3.238-4.533-7.771-7.34-13.384-8.635c-5.613-1.295-11.01-1.295-16.406,0
		c-5.182,1.295-10.362,3.022-15.543,5.612c-2.159,3.238-3.238,6.044-3.67,8.851c-0.432,2.59,0,4.965,1.079,6.908
		s2.807,3.67,4.749,5.181c1.943,1.511,4.533,2.806,7.771,4.102l1.728-1.727l-1.512,1.727c3.454,1.511,8.203,3.022,14.248,4.749
		l16.19,4.318c4.965,1.295,9.93,3.022,14.68,4.749c4.965,1.943,8.851,4.317,12.089,7.124c3.237,2.807,5.181,6.044,5.828,9.714
		c0.432,2.591,0.216,4.965-0.216,7.34c-0.647,2.375-1.295,4.317-2.159,5.613c-0.863,1.295-2.374,3.237-4.317,5.828l-11.441,11.441
		c-0.647,0.432-1.727,1.511-3.237,2.806c-1.512,1.296-2.375,2.159-2.807,2.591l-2.591,1.511c-1.079,0.864-2.374,1.512-3.454,1.943
		c-1.079,0.432-2.59,1.079-4.317,1.727c-3.454,1.296-7.556,2.159-12.305,2.591c-5.181,0.647-10.146,0.647-15.111,0.432
		c-4.965-0.432-9.93-1.295-14.463-2.807c-4.749-1.511-8.635-3.453-12.089-6.26c-3.454-2.591-5.829-6.045-7.124-10.146
		s-1.295-8.851,0.216-14.247c0.647-2.159,1.295-4.317,2.375-6.261c0.863-1.943,1.727-3.67,2.59-4.965
		c0.864-1.295,1.943-3.022,3.67-4.965c1.512-1.943,2.807-3.454,3.454-4.102l4.317-4.533
		C137.512,57.422,139.023,55.911,139.67,55.048z M140.318,55.264c-4.749,5.613-7.987,11.441-9.714,17.702
		c-1.511,5.612-1.728,10.361-0.216,14.463c1.295,4.102,3.67,7.34,7.124,9.931c3.237,2.591,7.34,4.749,11.873,6.26
		c4.749,1.512,9.498,2.375,14.463,2.807s9.931,0.432,14.68-0.216c4.749-0.432,8.851-1.511,12.521-2.807
		c3.67-1.295,6.477-2.59,8.635-4.102c3.022-4.533,4.102-9.066,3.022-13.815c-0.647-3.67-2.591-6.908-5.828-9.714
		c-3.022-2.807-7.124-5.182-11.873-6.908c-4.966-1.943-9.715-3.454-14.464-4.75l-16.19-4.317
		C148.305,58.286,143.772,56.775,140.318,55.264z"/>
	<path d="M302.007,11.226L313.232,0c-0.432,1.943-1.295,4.317-2.158,7.556c-1.079,3.238-1.943,6.044-2.591,8.851
		c-0.647,2.591-1.295,5.181-1.511,7.556c-1.079,8.419-1.296,17.27-0.647,26.984c4.317-0.864,8.419-1.943,12.521-3.022
		l-11.226,11.226h-0.432c0.432,4.533,1.295,9.499,2.374,14.895c1.08,5.397,1.943,9.714,2.591,12.521l3.454,15.327
		c1.727,7.124,2.807,11.441,3.238,12.736l-11.226,11.226c-0.432-1.942-1.295-6.045-2.807-12.089l-3.238-13.384
		c-0.647-2.807-1.511-6.908-2.59-11.873s-1.943-9.498-2.375-13.816c-0.647-4.102-1.079-8.419-1.295-12.521
		c-11.657,2.591-23.962,4.102-36.482,4.75c0.216,3.238,0.432,8.203,0.647,14.679s0.432,12.521,0.647,17.485
		c0.216,5.182,0.648,9.931,1.08,14.464l-11.226,11.226c-0.647-7.124-1.079-17.054-1.728-30.223
		c-0.432-12.952-0.863-22.235-1.295-27.416c-6.477,0-12.952-0.216-19.429-0.648l11.226-11.225c2.375,0.216,4.749,0.432,7.124,0.432
		c-0.647-5.181-2.159-12.953-4.102-22.667c-1.943-9.93-3.238-16.838-4.102-21.372l11.226-11.226
		c0.432,3.886,1.942,11.657,4.102,22.883c2.374,11.441,3.669,20.076,4.317,26.336c0,1.943,0.216,4.102,0.432,6.26
		c12.521,0,24.825-0.863,36.698-2.806c0-6.26,0.216-12.305,0.863-17.917c0.432-2.591,0.863-5.181,1.727-7.771
		c0.648-2.59,1.512-5.613,2.591-8.851C300.927,15.543,301.574,12.953,302.007,11.226z"/>
	<path d="M344.749,75.987c3.67,0.217,7.124,0.648,10.794,1.296c3.67-8.851,6.692-17.054,8.851-24.826
		c0.863-3.454,1.728-6.908,2.591-10.578c0.647-3.67,1.511-7.987,2.374-13.384l1.728-10.793L382.528,6.26
		c1.079,7.34,4.317,16.838,9.498,28.927s11.01,23.962,17.701,35.834c2.807-0.432,5.829-0.863,9.067-1.295l10.793-1.295
		c3.886-0.432,6.908-0.863,9.067-1.079l-11.441,11.441l-12.305,1.295c1.727,3.023,3.454,5.613,4.965,7.988
		c1.079,1.727,3.67,5.181,7.34,10.146s6.476,9.066,7.987,12.089l-11.441,11.441l-9.498-6.477c-4.534-3.237-8.636-5.828-11.873-7.987
		c-3.454-2.158-6.908-3.886-10.362-5.612c-10.146-4.965-22.235-8.635-36.267-11.441l-9.498,19.86l-11.441,11.441l15.327-32.381
		l-0.864-0.216c-5.828,0-11.225-0.648-15.975-1.943L344.749,75.987z M393.321,73.613c-6.907-13.168-12.521-25.257-16.406-35.835
		l-0.863,3.238c-3.022,10.793-7.771,23.098-14.248,37.13c2.591,0,5.182-0.216,8.204-0.647c3.021-0.432,5.396-0.647,7.339-1.08
		c1.943-0.215,4.75-0.863,8.419-1.51C389.435,74.26,392.026,73.829,393.321,73.613z M386.845,84.19
		c5.612,1.728,10.793,3.67,15.327,5.829l-4.102-7.34C394.185,83.112,390.299,83.543,386.845,84.19z"/>
	<path d="M457.867,12.089l11.44-11.441c2.807,21.587,3.886,48.572,3.022,80.521c-0.216,6.908-0.647,13.6-1.295,19.86
		c0,0.432-0.432,1.295-0.863,2.374c-0.433,1.08-0.648,1.943-0.648,2.375s0.216,1.079,0.648,1.727
		c0.432,0.217,1.079,0.217,1.727-0.216c0.647-0.432,1.295-1.079,1.943-1.942c0.647-0.863,1.295-1.295,1.942-1.511
		c1.727-0.648,4.533-1.512,8.419-2.159c1.943-0.216,3.886-0.432,6.045-0.647c2.158,0,4.749,0,7.555,0
		c2.807,0,4.966,0.216,6.045,0.216c11.01,0,19.213-0.647,25.041-1.943c5.613-1.295,13.385-4.533,23.099-9.714l-11.441,11.441
		c-9.714,5.181-17.485,8.203-23.099,9.714c-5.612,1.296-14.031,1.943-25.041,1.943c-1.079,0-3.238,0-6.044-0.216
		c-2.807-0.216-5.397-0.216-7.556-0.216c-2.159,0-4.102,0.216-6.045,0.647c-3.67,0.647-6.476,1.295-8.419,2.158
		c-0.432,0.216-1.079,0.647-1.727,1.512c-0.647,0.863-1.296,1.295-1.943,1.942s-1.079,0.647-1.727,0.216
		c-0.432-0.647-0.647-1.295-0.647-1.727s0.432-1.296,0.863-2.375s0.647-1.942,0.647-2.158c0.647-6.261,1.079-12.953,1.295-19.86
		C461.752,60.444,460.889,33.46,457.867,12.089z"/>
</g>
</svg>
