<?xml version="1.0" encoding="utf-8"?>
<!-- Generator: Adobe Illustrator 16.0.0, SVG Export Plug-In . SVG Version: 6.00 Build 0)  -->
<!DOCTYPE svg PUBLIC "-//W3C//DTD SVG 1.1//EN" "http://www.w3.org/Graphics/SVG/1.1/DTD/svg11.dtd">
<svg version="1.1" id="Layer_1" xmlns="http://www.w3.org/2000/svg" xmlns:xlink="http://www.w3.org/1999/xlink" x="0px" y="0px"
	 width="749.493px" height="172.778px" viewBox="-197.507 -22.275 749.493 172.778"
	 enable-background="new -197.507 -22.275 749.493 172.778" xml:space="preserve">
<g>
	<path d="M11.657,75.987c3.67,0.218,7.123,0.648,10.794,1.297c3.67-8.852,6.691-17.055,8.851-24.826
		c0.863-3.454,1.728-6.908,2.591-10.578c0.647-3.67,1.511-7.987,2.374-13.384l1.729-10.793L49.436,6.26
		c1.079,7.34,4.317,16.838,9.498,28.927c5.182,12.089,11.01,23.962,17.701,35.834c2.807-0.432,5.829-0.862,9.067-1.295l10.793-1.295
		c3.886-0.432,6.907-0.863,9.066-1.079l-11.44,11.441l-12.306,1.295c1.728,3.022,3.454,5.613,4.965,7.988
		c1.079,1.727,3.671,5.181,7.341,10.146s6.476,9.066,7.986,12.089l-11.44,11.441l-9.498-6.478
		c-4.534-3.236-8.636-5.827-11.873-7.986c-3.454-2.158-6.908-3.887-10.362-5.612c-10.146-4.965-22.234-8.635-36.267-11.441
		l-9.498,19.86L1.512,121.968l15.326-32.381l-0.863-0.216c-5.828,0-11.226-0.647-15.975-1.943L11.657,75.987z M60.013,73.613
		c-6.907-13.168-12.521-25.257-16.406-35.835l-0.862,3.238c-3.022,10.793-7.771,23.099-14.248,37.13
		c2.591,0,5.182-0.216,8.203-0.646c3.021-0.433,5.396-0.647,7.34-1.08c1.942-0.215,4.749-0.863,8.419-1.51
		C56.127,74.26,58.718,73.829,60.013,73.613z M53.753,84.19c5.612,1.729,10.793,3.67,15.327,5.829l-4.103-7.34
		C60.876,83.112,57.207,83.543,53.753,84.19z"/>
	<path d="M139.67,55.048c-3.886-1.511-6.908-3.238-9.066-5.181c-2.159-1.943-3.67-4.103-4.533-6.908
		c-0.862-2.591-0.216-5.829,1.728-9.714c1.943-3.67,5.182-7.987,9.715-12.521l11.441-11.44c3.669-2.159,7.555-3.887,11.873-5.397
		c4.316-1.511,8.635-2.375,13.384-3.021c4.533-0.648,9.065,0,13.384,1.511c4.317,1.511,7.771,4.102,10.578,7.771l1.295,2.808
		L209.829,2.59l-1.943,6.261l-2.59,7.124c-0.648,2.159-1.08,4.317-1.512,6.26l-11.441,11.441
		c-3.237-7.556-5.181-11.441-5.612-12.089c-3.237-4.533-7.771-7.34-13.384-8.635s-11.01-1.295-16.406,0
		c-5.182,1.295-10.361,3.021-15.543,5.611c-2.159,3.238-3.237,6.044-3.67,8.852c-0.432,2.59,0,4.965,1.079,6.908
		c1.079,1.942,2.807,3.67,4.749,5.181c1.943,1.511,4.533,2.806,7.771,4.102l1.728-1.727l-1.512,1.727
		c3.454,1.512,8.203,3.022,14.248,4.749l16.189,4.318c4.965,1.295,9.931,3.021,14.681,4.749c4.965,1.943,8.851,4.317,12.089,7.124
		c3.236,2.807,5.181,6.044,5.828,9.714c0.432,2.591,0.216,4.965-0.217,7.34c-0.646,2.375-1.295,4.317-2.158,5.613
		c-0.863,1.295-2.374,3.237-4.317,5.828l-11.441,11.44c-0.646,0.433-1.727,1.512-3.236,2.807c-1.513,1.296-2.375,2.159-2.808,2.591
		l-2.591,1.511c-1.079,0.864-2.374,1.512-3.454,1.943c-1.079,0.432-2.59,1.079-4.316,1.727c-3.454,1.296-7.557,2.159-12.306,2.591
		c-5.181,0.647-10.146,0.647-15.11,0.433c-4.965-0.433-9.931-1.295-14.463-2.808c-4.749-1.511-8.636-3.452-12.09-6.26
		c-3.453-2.591-5.828-6.045-7.124-10.146c-1.295-4.102-1.295-8.852,0.217-14.247c0.646-2.159,1.295-4.317,2.375-6.262
		c0.862-1.942,1.727-3.67,2.59-4.965c0.864-1.295,1.942-3.021,3.67-4.965c1.512-1.942,2.807-3.454,3.454-4.102l4.316-4.533
		C137.512,57.422,139.023,55.911,139.67,55.048z M140.318,55.264c-4.749,5.613-7.986,11.441-9.714,17.702
		c-1.511,5.612-1.728,10.361-0.216,14.463c1.295,4.103,3.67,7.34,7.124,9.931c3.237,2.592,7.34,4.749,11.873,6.261
		c4.749,1.512,9.498,2.375,14.463,2.807s9.931,0.432,14.68-0.216c4.749-0.433,8.852-1.511,12.521-2.808
		c3.67-1.295,6.477-2.59,8.635-4.102c3.022-4.533,4.103-9.066,3.022-13.815c-0.647-3.67-2.592-6.907-5.828-9.714
		c-3.022-2.807-7.124-5.182-11.873-6.907c-4.966-1.943-9.715-3.454-14.464-4.75l-16.19-4.317
		C148.305,58.286,143.772,56.775,140.318,55.264z"/>
	<path d="M302.007,11.226L313.232,0c-0.432,1.942-1.295,4.316-2.158,7.556c-1.079,3.238-1.942,6.044-2.591,8.852
		c-0.646,2.591-1.295,5.181-1.511,7.556c-1.079,8.419-1.296,17.27-0.647,26.984c4.317-0.864,8.419-1.943,12.521-3.022
		l-11.227,11.226h-0.432c0.432,4.533,1.295,9.499,2.374,14.896c1.08,5.396,1.943,9.714,2.591,12.521l3.454,15.327
		c1.728,7.124,2.807,11.441,3.238,12.736l-11.227,11.226c-0.432-1.941-1.295-6.045-2.807-12.089l-3.238-13.384
		c-0.646-2.807-1.511-6.908-2.59-11.873s-1.942-9.498-2.375-13.816c-0.646-4.102-1.079-8.419-1.295-12.521
		c-11.657,2.591-23.962,4.102-36.481,4.75c0.216,3.238,0.432,8.203,0.646,14.679c0.215,6.477,0.433,12.521,0.647,17.485
		c0.216,5.182,0.647,9.931,1.08,14.464l-11.227,11.226c-0.646-7.124-1.079-17.054-1.728-30.223
		c-0.433-12.952-0.863-22.235-1.295-27.416c-6.478,0-12.952-0.216-19.43-0.647l11.227-11.226c2.375,0.216,4.749,0.432,7.124,0.432
		c-0.647-5.181-2.159-12.952-4.103-22.667c-1.942-9.93-3.237-16.838-4.102-21.371L248.9,0.432
		c0.433,3.886,1.942,11.657,4.103,22.883c2.374,11.441,3.669,20.076,4.316,26.336c0,1.943,0.217,4.103,0.433,6.261
		c12.521,0,24.825-0.863,36.697-2.807c0-6.26,0.217-12.305,0.863-17.917c0.433-2.591,0.863-5.181,1.728-7.771
		c0.647-2.59,1.512-5.613,2.591-8.852C300.927,15.543,301.573,12.953,302.007,11.226z"/>
	<path d="M344.748,75.987c3.671,0.218,7.124,0.648,10.795,1.297c3.67-8.852,6.691-17.055,8.851-24.826
		c0.863-3.454,1.728-6.908,2.591-10.578c0.647-3.67,1.511-7.987,2.374-13.384l1.729-10.793l11.44-11.442
		c1.079,7.34,4.317,16.838,9.498,28.927s11.01,23.962,17.701,35.834c2.807-0.432,5.829-0.862,9.067-1.295l10.793-1.295
		c3.886-0.432,6.907-0.863,9.066-1.079l-11.44,11.441l-12.306,1.295c1.728,3.022,3.454,5.613,4.965,7.988
		c1.079,1.727,3.671,5.181,7.341,10.146s6.476,9.066,7.986,12.089l-11.44,11.441l-9.498-6.478
		c-4.534-3.236-8.637-5.827-11.873-7.986c-3.454-2.158-6.908-3.887-10.362-5.612c-10.146-4.965-22.235-8.635-36.267-11.441
		l-9.498,19.86l-11.441,11.441l15.327-32.381l-0.864-0.217c-5.828,0-11.225-0.647-15.975-1.942L344.748,75.987z M393.321,73.613
		c-6.907-13.168-12.521-25.257-16.406-35.835l-0.862,3.238c-3.022,10.793-7.771,23.099-14.248,37.13
		c2.591,0,5.182-0.216,8.204-0.646c3.021-0.433,5.396-0.647,7.339-1.08c1.942-0.215,4.75-0.863,8.419-1.51
		C389.435,74.26,392.026,73.829,393.321,73.613z M386.845,84.19c5.611,1.729,10.793,3.67,15.327,5.829l-4.103-7.34
		C394.185,83.112,390.299,83.543,386.845,84.19z"/>
	<path d="M457.866,12.089l11.44-11.441c2.807,21.587,3.886,48.572,3.021,80.521c-0.216,6.908-0.646,13.6-1.295,19.859
		c0,0.433-0.432,1.296-0.862,2.374c-0.434,1.08-0.648,1.943-0.648,2.375c0,0.433,0.216,1.079,0.648,1.728
		c0.432,0.217,1.079,0.217,1.727-0.216s1.295-1.079,1.943-1.942c0.646-0.863,1.295-1.295,1.941-1.511
		c1.728-0.648,4.533-1.512,8.419-2.159c1.943-0.216,3.887-0.432,6.045-0.646c2.158,0,4.749,0,7.556,0s4.966,0.216,6.045,0.216
		c11.01,0,19.213-0.647,25.041-1.943c5.612-1.295,13.385-4.533,23.099-9.714l-11.44,11.441c-9.714,5.181-17.485,8.202-23.1,9.714
		c-5.611,1.296-14.03,1.942-25.041,1.942c-1.079,0-3.237,0-6.044-0.216s-5.396-0.216-7.556-0.216s-4.103,0.216-6.045,0.646
		c-3.67,0.647-6.477,1.296-8.419,2.158c-0.433,0.216-1.079,0.647-1.728,1.513c-0.646,0.862-1.296,1.295-1.942,1.941
		c-0.647,0.647-1.079,0.647-1.728,0.216c-0.432-0.646-0.646-1.295-0.646-1.727c0-0.433,0.432-1.296,0.862-2.375
		c0.432-1.079,0.647-1.942,0.647-2.158c0.646-6.261,1.079-12.953,1.295-19.86C461.752,60.444,460.889,33.46,457.866,12.089z"/>
</g>
<g id="Layer_2_copy">
	<path d="M-70.937,64.683c-6.054,0.564-17.138,3.984-22.746,9.349c-1.924,1.84-2.316-0.567-2.542-1.493
		c-0.709-2.912,3.364-9.168,5.553-11.217c2.297-2.151,9.023-4.885,8.864-8.028c-0.253-4.968-13.924-8.948-18.899-8.948
		c-4.181,0-6.797,1.198-9.706,1.474c-2.87,0.273-10.657,0.02-9.215-2.477c2.509-4.349,10.654-5.01,15.033-6.899
		c3.972-1.715,5.31-2.216,6.838-5.218c1.503-2.948,0.534-6.595,1.399-8.037c2.007-3.345,8.492-6.624,11.039-10.035
		c2.936-3.934,13.045-18.816,13.882-15.303c1.029,4.324-3.991,10.107-4.851,14.467c-0.708,3.589-1.592,14.367-3.764,17.31
		c-2.142,2.906-13.625,10.313-10.016,10.175c5.835-0.224,11.453-5.396,14.448-8.586c4.443-4.732,7.778-16.474,9.282-22.997
		c1.469-6.369,3.179-21.63,2.704-29.011c-0.069-1.052-0.638-1.2-1.198-1.428c-1.63-0.669-5.114,5.004-7.108,6.774
		C-79.195-9.01-88.622,1.8-96.609,7.299c-6.677,4.597-21.112,11.093-29.018,12.878c-4.788,1.081-11.521,0.674-17.249,2.237
		c-4.367,1.191-8.8,2.822-14.361,5.791c-2.046,1.092-3.813,3.422-4.517,2.927c-0.703-0.496-0.039-3.593,0.084-4.014
		c1.337-4.599,5.939-7.193,8.949-8.697c5.184-2.592,13.521-1.589,16.473-5.854c2.625-3.792,0.122-13.411-1.253-17.812
		c-1.333-4.262-6.075-10.563-10.036-12.627c-0.597-0.311-3.502-0.996-3.303-0.352c3.345,10.788-2.633,23.599-6.647,30.792
		c-4.591,8.225-16.236,22.105-21.827,29.687c-4.309,5.844-15.18,19.002-13.899,26.15c1.003,5.603,5.83,15.076,4.784,19.259
		c-1.187,4.747-11.448,10.048-8.571,14.006c5.77,7.944,24.852,7.542,34.077,7.82c25.086,0.752,47.415-13.967,55.526-26.427
		c0.369-0.564,2.149-0.754,2.675-0.335c0.654,0.521,0.252,2.548,0,3.346c-2.639,8.352-14.858,21.536-22.578,25.674
		c-4.134,2.212-11.536,5.684-19.736,6.104c-5.737,0.292-12.974-1.724-16.14,0.585c-2.122,1.544-2.949,6.739-3.01,9.365
		c-0.063,2.699,0.393,8.175,2.425,9.952c2.381,2.082,8.605,1.554,11.708,2.174c4.18,0.837,6.788,11.287,10.286,10.537
		c1.786-0.385,1.688-4.11,1.672-5.938c-0.019-1.958-1.141-5.563-2.09-7.275c-1.072-1.931-4.795-6.122-3.68-8.028
		c0.55-0.938,3.45-0.61,4.349,0c17.478,11.874,21.572,10.419,29.52,10.62c16.641,0.419,45.988-17.604,55.359-28.85
		c2.09-2.51-6.773-3.848-6.026-15.066c0.545-8.203,5.189-14.537,17.816-21.228C-37.965,71.056-63.179,63.96-70.937,64.683z
		 M-145.808,86.297c-1.546,0.972-6.017,2.083-7.833,2.285c-2.425,0.268-5.858,0.239-7.944,1.505
		c-1.633,0.991-1.802,1.476-5.279,3.898c-0.796,0.554-6.696,5.156-5.071,1.438c2.231-5.101,3.186-9.743,6.615-11.915
		c3.345-2.117,7.617-0.743,9.144-0.724c4.349,0.055,5.198-1.148,7.192-1.84c3.436-1.193,7.638-5.369,10.982-6.804
		c1.171-0.5,1.661,1.225,1.295,2.116C-138.994,81.832-141.939,83.863-145.808,86.297z"/>
</g>
</svg>
