<?xml version="1.0" encoding="utf-8"?>
<!-- Generator: Adobe Illustrator 16.0.0, SVG Export Plug-In . SVG Version: 6.00 Build 0)  -->
<!DOCTYPE svg PUBLIC "-//W3C//DTD SVG 1.1//EN" "http://www.w3.org/Graphics/SVG/1.1/DTD/svg11.dtd">
<svg version="1.1" id="Layer_1" xmlns="http://www.w3.org/2000/svg" xmlns:xlink="http://www.w3.org/1999/xlink" x="0px" y="0px"
	 width="612px" height="612px" viewBox="0 0 612 612" enable-background="new 0 0 612 612" xml:space="preserve">
<path d="M214.639,397.361l45.68-101.333l-19.93-62.282l68.938,26.573l88.033-45.68l-45.681,94.689l19.93,62.282l-62.282-19.93
	L214.639,397.361"/>
<path opacity="0.5" enable-background="new    " d="M307.967,8.306C257.084,8.06,207.001,20.965,162.573,45.769l157.939,60.85
	l123.974-64.348c-42.034-22.347-88.914-34.026-136.52-34.009V8.306z M65.658,134.334c-34.165,49.85-52.354,108.915-52.15,169.349
	c0,40.436,8.262,79.036,23.124,114.182l69.987-155.405L65.658,134.378V134.334z M574.056,177.961l-68.675,142.508l47.036,146.925
	c57.807-85.889,66.047-195.891,21.683-289.433H574.056z M320.513,505.337l-135.951,65.571
	c90.858,42.241,197.014,35.05,281.345-19.059L320.513,505.337L320.513,505.337z"/>
<path d="M612,0l-294.81,153L86.248,64.042L153,272.603L0,612l317.19-153l208.561,66.752L459,317.191L612,0z M470.365,141.634
	l-82.183,170.311l35.89,112.083l-112.084-35.846L141.59,470.365l82.184-182.288L187.928,175.95l124.061,47.867L470.365,141.634z"/>
</svg>
