<!DOCTYPE svg PUBLIC "-//W3C//DTD SVG 1.1//EN" "http://www.w3.org/Graphics/SVG/1.1/DTD/svg11.dtd">
<svg version="1.1" xmlns="http://www.w3.org/2000/svg" xmlns:xlink="http://www.w3.org/1999/xlink" x="0px" y="0px" viewBox="0 0 283.5 283.5" xml:space="preserve">
<g >
		<path d="M230.7,120c-4.3,12.1-11,23-19.6,32.3c20.4,3.6,36,21.5,36,42.9c0,24.1-19.5,43.6-43.6,43.6
			s-43.6-19.5-43.6-43.6h0c0-44.2-35.8-80-80-80s-80,35.8-80,80c0,44.2,35.8,80,80,80c19.1,0,36.6-6.7,50.3-17.9
			c-7.9-9.7-13.9-21-17.5-33.4c-8,9.1-19.7,14.9-32.8,14.9c-24.1,0-43.6-19.5-43.6-43.6s19.5-43.6,43.6-43.6s43.6,19.5,43.6,43.6
			c0,0.8,0,1.6-0.1,2.4h0.1c1.3,43.1,36.5,77.6,79.9,77.6c44.2,0,80-35.8,80-80C283.5,160.6,261.5,131.2,230.7,120z"/>
		<path d="M80,100.7c7.1,0,14.1,0.8,20.8,2.3c-1.7-4.6-2.6-9.6-2.6-14.8c0-24.1,19.5-43.6,43.6-43.6
			s43.6,19.5,43.6,43.6c0,21.5-15.5,39.3-36,42.9c8.5,9.2,15.2,20.2,19.6,32.3c30.8-11.1,52.7-40.6,52.7-75.2c0-44.2-35.8-80-80-80
			s-80,35.8-80,80c0,4.8,0.4,9.5,1.3,14.1C68.5,101.3,74.2,100.7,80,100.7z"/>
</g>
</svg>
