<?xml version="1.0" encoding="utf-8"?>
<!DOCTYPE svg PUBLIC "-//W3C//DTD SVG 1.1//EN" "http://www.w3.org/Graphics/SVG/1.1/DTD/svg11.dtd">
<svg version="1.1" id="Layer_1" xmlns="http://www.w3.org/2000/svg" xmlns:xlink="http://www.w3.org/1999/xlink" x="0px" y="0px"
	 width="612px" height="719.601px" viewBox="0 0 612 719.601" enable-background="new 0 0 612 719.601" xml:space="preserve">
<polygon points="307.553,149.613 425.463,353.837 490.554,319.661 305.996,0 207.622,170.396 274.649,206.607 "/>
<polygon points="241.985,263.178 174.959,226.969 0,530.01 111.694,530.01 156.548,454.931 131.277,454.931 "/>
<path d="M236.705,404.505v145.427h-96.953l169.667,169.669l169.667-169.669h-96.952V404.505H236.705"/>
<polygon points="352.843,381.076 387.071,346.849 309.419,269.198 231.77,346.848 265.998,381.076 "/>
<g>
	<polygon points="402.179,454.931 402.179,530.01 612,530.01 523.231,376.254 458.14,410.435 483.827,454.931 	"/>
	<polygon points="216.662,477.407 185.234,530.01 216.662,530.01 	"/>
</g>
</svg>
