<?xml version="1.0" encoding="utf-8"?>
<!DOCTYPE svg PUBLIC "-//W3C//DTD SVG 1.1//EN" "http://www.w3.org/Graphics/SVG/1.1/DTD/svg11.dtd">
<svg version="1.1" id="Layer_1" xmlns="http://www.w3.org/2000/svg" xmlns:xlink="http://www.w3.org/1999/xlink" x="0px" y="0px"
	 width="612px" height="719.602px" viewBox="0 0 612 719.602" enable-background="new 0 0 612 719.602" xml:space="preserve">
<polygon fill="#010101" points="307.553,149.613 425.463,353.837 490.554,319.661 305.996,0 207.622,170.396 274.648,206.607 "/>
<polygon fill="#010101" points="241.984,263.178 174.959,226.969 0,530.01 111.693,530.01 156.548,454.931 131.276,454.931 "/>
<path fill="#010101" d="M305.271,454.931h-75.181l-36.319,60.789C223.22,489.158,259.913,467.947,305.271,454.931z"/>
<polygon fill="#010101" points="523.23,376.254 458.14,410.435 483.827,454.931 462.82,454.931 537.899,530.01 612,530.01 "/>
<path fill="#010101" d="M516.899,532.135L352.866,368.102v93.733C188.833,485.269,118.533,602.435,95.1,719.602
	c58.583-82.017,140.6-119.51,257.767-119.51v96.076L516.899,532.135z"/>
<polygon fill="#010101" points="337.866,356.681 337.866,329.977 370.904,363.015 387.07,346.849 309.419,269.198 231.77,346.848 
	309.42,424.498 337.866,396.052 "/>
</svg>
