<?xml version="1.0" encoding="utf-8"?>
<!-- Generator: Adobe Illustrator 16.0.0, SVG Export Plug-In . SVG Version: 6.00 Build 0)  -->
<!DOCTYPE svg PUBLIC "-//W3C//DTD SVG 1.1//EN" "http://www.w3.org/Graphics/SVG/1.1/DTD/svg11.dtd">
<svg version="1.1" id="Layer_5" xmlns="http://www.w3.org/2000/svg" xmlns:xlink="http://www.w3.org/1999/xlink" x="0px" y="0px"
	 width="612px" height="686.205px" viewBox="0 29.361 612 686.205" enable-background="new 0 29.361 612 686.205"
	 xml:space="preserve">
<g id="Layer_4">
</g>
<g id="Layer_2_copy">
	<path d="M502.687,374.722c-24.046,2.242-68.064,15.828-90.337,37.129c-7.64,7.307-9.201-2.252-10.099-5.932
		c-2.817-11.567,13.362-36.414,22.056-44.551c9.127-8.542,35.839-19.398,35.204-31.884c-1.008-19.73-55.304-35.537-75.06-35.537
		c-16.605,0-27.001,4.759-38.549,5.854c-11.399,1.084-42.324,0.078-36.601-9.839c9.965-17.271,42.319-19.897,59.705-27.4
		c15.775-6.81,21.09-8.802,27.16-20.722c5.965-11.708,2.116-26.191,5.554-31.92c7.971-13.285,33.727-26.306,43.841-39.855
		c11.664-15.625,51.811-74.728,55.133-60.779c4.089,17.172-15.851,40.14-19.265,57.458c-2.813,14.255-6.321,57.059-14.944,68.75
		c-8.51,11.541-54.116,40.96-39.782,40.41c23.178-0.888,45.489-21.428,57.386-34.101c17.643-18.795,30.886-65.427,36.863-91.333
		c5.834-25.293,12.622-85.906,10.733-115.221c-0.271-4.177-2.532-4.764-4.756-5.672c-6.477-2.657-20.311,19.876-28.229,26.902
		c-28.812,25.563-66.252,68.495-97.976,90.338c-26.52,18.256-83.847,44.058-115.247,51.146c-19.015,4.292-45.755,2.678-68.506,8.885
		c-17.348,4.732-34.951,11.209-57.037,22.999c-8.126,4.338-15.143,13.592-17.935,11.625c-2.792-1.967-0.155-14.271,0.333-15.942
		c5.313-18.267,23.585-28.568,35.537-34.541c20.592-10.296,53.699-6.31,65.429-23.249c10.426-15.06,0.481-53.264-4.982-70.742
		c-5.293-16.928-24.126-41.952-39.854-50.15c-2.372-1.235-13.913-3.955-13.119-1.396c13.285,42.845-10.462,93.726-26.404,122.289
		c-18.229,32.668-64.482,87.795-86.684,117.904c-17.115,23.212-60.291,75.47-55.205,103.856
		c3.985,22.252,23.155,59.88,19.003,76.486c-4.717,18.858-45.464,39.906-34.042,55.632c22.917,31.551,98.703,29.953,135.34,31.053
		c99.637,2.989,188.313-55.464,220.53-104.951c1.462-2.247,8.536-3,10.628-1.329c2.596,2.071,1,10.12,0,13.285
		c-10.482,33.171-59.011,85.532-89.673,101.963c-16.419,8.79-45.813,22.573-78.381,24.245c-22.787,1.161-51.526-6.841-64.101,2.325
		c-8.428,6.133-11.712,26.766-11.956,37.197c-0.249,10.721,1.563,32.465,9.631,39.521c9.46,8.272,34.173,6.177,46.497,8.637
		c16.606,3.321,26.959,44.826,40.853,41.849c7.094-1.526,6.709-16.326,6.643-23.582c-0.073-7.773-4.531-22.096-8.303-28.895
		c-4.255-7.671-19.046-24.317-14.614-31.885c2.186-3.726,13.7-2.428,17.271,0c69.414,47.161,85.672,41.381,117.239,42.181
		c66.094,1.661,182.646-69.923,219.864-114.582c8.304-9.966-26.902-15.278-23.933-59.835c2.169-32.578,20.611-57.737,70.763-84.308
		C633.637,400.031,533.491,371.853,502.687,374.722z M205.328,460.565c-6.14,3.86-23.897,8.276-31.11,9.076
		c-9.632,1.063-23.265,0.949-31.552,5.979c-6.487,3.934-7.156,5.857-20.965,15.479c-3.161,2.199-26.597,20.482-20.141,5.714
		c8.858-20.26,12.652-38.697,26.27-47.317c13.285-8.411,30.25-2.957,36.314-2.88c17.271,0.224,20.64-4.557,28.563-7.309
		c13.647-4.736,30.337-21.321,43.617-27.015c4.648-1.993,6.596,4.857,5.143,8.4C232.39,442.833,220.693,450.897,205.328,460.565z"/>
</g>
</svg>
