<?xml version="1.0" encoding="utf-8"?>
<!-- Generator: Adobe Illustrator 16.0.0, SVG Export Plug-In . SVG Version: 6.00 Build 0)  -->
<!DOCTYPE svg PUBLIC "-//W3C//DTD SVG 1.1//EN" "http://www.w3.org/Graphics/SVG/1.1/DTD/svg11.dtd">
<svg version="1.1" id="Layer_1" xmlns="http://www.w3.org/2000/svg" xmlns:xlink="http://www.w3.org/1999/xlink" x="0px" y="0px"
	 width="612px" height="417.276px" viewBox="0 0 612 417.276" enable-background="new 0 0 612 417.276" xml:space="preserve">
<image display="none" overflow="visible" width="232" height="183" xlink:href="BED1EBD4.jpg"  transform="matrix(1 0 0 1 191 305)">
</image>
<path d="M309.043,0.337c-2.85-1.401-3.401,1.817-3.43,5.043c-0.164,19.064-11.677,103.516-27.111,129.696
	c-33.535,56.889-55.677,84.014-88.72,98.959c-5.296,2.395,13.56,2.465,16.861,2.395c22.117-0.473,55.223-1.708,83.237,5.39
	c44.912,11.377,26.391,6.587,65.913,19.761c28.786,9.595,53.853,8.571,70.021,1.796c2.044-0.856,8.047-3.48,6.587-5.389
	c-29.343-38.325-32.926-43.382-37.727-74.255c-4.191-26.947,1.656-41.677,3.594-55.092c0.762-5.292,4.121-16.355,4.991-14.372
	c8.566,19.527,6.985,32.936,26.335,67.88c1.992,3.596,20.978,39.902,29.553,25.722c26.55-43.899,32.538-43.3,63.177-69.958
	c1.291-1.123-0.711-4.725-2.494-4.482c-25.749,3.511-45.155,18.115-58.151,20.526c-4.964,0.921-4.889-1.511-8.917-4.557
	c-18.456-13.944-35.004-53.479-48.505-72.26C390.624,58.18,361.739,26.241,309.043,0.337z"/>
<path d="M4.837,288.528c13.242-19.672,71.712-36.613,192.664-33.272c98.966,2.732,126.907,31.448,168.43,39.86
	c47.308,9.581,56.889,4.191,68.776,2.302c11.677-1.857,18.629-10.167,20.449-8.889c92.196,64.707,84.716,54.494,154.778,57.488
	c3.415,0.145,0.992,4.009-0.28,7.186c-13.933,34.723-59.284,64.098-129.946,64.074c-48.683-0.014-132.512-43.158-173.854-68.865
	c-43.82-27.247-127.656-64.075-168.676-65.272c-29.733-0.87-80.133,4.468-95.015,21.558c-2.692,3.092-3.293,8.435-2.594,12.426
	c3.149,17.965,45.712,45.464,100.604,51.05c40.257,4.098,109.076,2.049,159.438-2.396c5.09-0.449,7.617,2.344,4.492,4.042
	c-42.538,23.083-105.843,38.774-169.918,32.188C73.174,395.733,44,375.434,22.402,351.906
	c-9.242-10.068-23.048-31.163-22.379-44.814C0.112,305.286,0,295.714,4.837,288.528z"/>
</svg>
