<?xml version="1.0" encoding="utf-8"?>
<!-- Generator: Adobe Illustrator 16.0.0, SVG Export Plug-In . SVG Version: 6.00 Build 0)  -->
<!DOCTYPE svg PUBLIC "-//W3C//DTD SVG 1.1//EN" "http://www.w3.org/Graphics/SVG/1.1/DTD/svg11.dtd">
<svg version="1.1" id="Layer_1" xmlns="http://www.w3.org/2000/svg" xmlns:xlink="http://www.w3.org/1999/xlink" x="0px" y="0px"
	 width="94.12px" height="118.384px" viewBox="0 0 94.12 118.384" enable-background="new 0 0 94.12 118.384" xml:space="preserve">
<path d="M0,11.441L11.441,0c2.807,21.587,3.886,48.572,3.022,80.521c-0.216,6.908-0.647,13.6-1.295,19.86
	c0,0.432-0.432,1.295-0.863,2.374c-0.433,1.08-0.648,1.943-0.648,2.375s0.216,1.079,0.648,1.727
	c0.432,0.217,1.079,0.217,1.727-0.216c0.647-0.432,1.295-1.079,1.943-1.942c0.647-0.863,1.295-1.295,1.942-1.511
	c1.727-0.648,4.533-1.512,8.419-2.159c1.943-0.216,3.886-0.432,6.045-0.647c2.158,0,4.749,0,7.555,0
	c2.807,0,4.966,0.216,6.045,0.216c11.01,0,19.213-0.647,25.041-1.943c5.613-1.295,13.385-4.533,23.099-9.714l-11.441,11.441
	c-9.714,5.181-17.485,8.203-23.099,9.714c-5.612,1.296-14.031,1.943-25.041,1.943c-1.079,0-3.238,0-6.044-0.216
	c-2.807-0.216-5.397-0.216-7.556-0.216c-2.159,0-4.102,0.216-6.045,0.647c-3.67,0.647-6.476,1.295-8.419,2.158
	c-0.432,0.216-1.079,0.647-1.727,1.512c-0.647,0.863-1.296,1.295-1.943,1.942s-1.079,0.647-1.727,0.216
	c-0.432-0.647-0.647-1.295-0.647-1.727s0.432-1.296,0.863-2.375s0.647-1.942,0.647-2.158c0.647-6.261,1.079-12.953,1.295-19.86
	C3.885,59.797,3.022,32.813,0,11.441z"/>
</svg>
