<?xml version="1.0" encoding="utf-8"?>
<!-- Generator: Adobe Illustrator 16.0.0, SVG Export Plug-In . SVG Version: 6.00 Build 0)  -->
<!DOCTYPE svg PUBLIC "-//W3C//DTD SVG 1.1//EN" "http://www.w3.org/Graphics/SVG/1.1/DTD/svg11.dtd">
<svg version="1.1" xmlns="http://www.w3.org/2000/svg" xmlns:xlink="http://www.w3.org/1999/xlink" x="0px" y="0px"
	 width="442.527px" height="485.041px" viewBox="13 195.687 442.527 485.041" enable-background="new 13 195.687 442.527 485.041"
	 xml:space="preserve">
<g id="Layer_1">
	<path display="none" d="M355.667,447.658c-9.881-0.001-17.891-8.012-17.891-17.892c0-2.257,0.436-4.408,1.198-6.397l-0.034-0.05
		l21.513-57.508l-104.533,89.366l34.09-0.008c0.314-0.034,0.632-0.054,0.956-0.054c4.86,0,8.799,3.939,8.799,8.799
		c0,1.229-0.254,2.399-0.709,3.463l0.007,0.01l-30.036,69.636l104.532-89.367l-17.892,0.005L355.667,447.658z"/>
	<path display="none" fill="#FFFFFF" d="M356.125,450.239h-17.617l-0.004-0.007c-7.072-0.074-12.785-5.823-12.785-12.913
		c0-2.162,0.537-4.196,1.476-5.985l-0.008-0.015l22.503-43.55l-85.564,68.526h19.025c7.136,0,12.919,5.785,12.919,12.92
		c0,2.298-0.606,4.45-1.657,6.32l0.004,0.005l-30.291,52.689L356.125,450.239z"/>
	<path display="none" fill="#231F20" d="M216.458,429.833c3.279,0,6.462-0.404,9.512-1.149
		c-14.412-0.726-25.874-12.641-25.874-27.233c0-15.061,12.208-27.269,27.269-27.269s27.27,12.208,27.27,27.269
		c0,0.093-0.006,0.184-0.006,0.276c1.16-3.744,1.787-7.725,1.787-11.852c0-22.068-17.89-39.958-39.958-39.958
		c-22.069,0-39.958,17.89-39.958,39.958C176.5,411.942,194.389,429.833,216.458,429.833z"/>
	
		<image display="none" overflow="visible" width="130" height="135" xlink:href="../../../graphics/lunarcrystalizepassive1.png"  transform="matrix(1 0 0 1 258.1672 588.834)">
	</image>
	<g id="Crystalize">
		<path display="none" fill="#FFFFFF" d="M306.067,576.76l82.605-61.62l7.897-116.763c0,0-56.505-4.191-141.153-2.345
			l30.982,164.835L184.972,498.39l28.924,109.996L306.067,576.76z"/>
		<path display="none" fill="#FFFFFF" d="M332.186,544.484l16.953-103.775c48.519-15.048,12.079-47.222-45.598-47.222
			c-57.967,0-107.173-15.715-139.029-58.474c-0.619-0.831-1.372-0.47-1.125,0.544c12.717,52.177,53.355,93.402,105.193,106.946
			l30.982,164.835L332.186,544.484z"/>
		<path display="none" fill="#FFFFFF" d="M357.23,411.377c48.519-15.047,86.228-54.631,98.659-104.246
			c0.326-1.307-0.625-1.811-1.419-0.758c-31.9,42.358-85.161,57.782-142.837,57.782c-57.967,0-107.173-15.715-139.029-58.474
			c-0.619-0.831-1.372-0.469-1.125,0.544c12.717,52.176,53.355,93.402,105.193,106.947L357.23,411.377z"/>
		<path display="none" d="M418.859,585.012c-8.968,3.187,28.896,14.787,29.31,24.297c0.56,13.033-45.121,26.223-45.121,26.223
			l-21.21-76.356l-52.453,50.52l12.954-78.747l-23.753-45.994l30.064,7.666l10.643-65.448
			c48.519-15.047,86.228-54.631,98.659-104.245c0.326-1.308-0.626-1.812-1.419-0.758c-31.9,42.358-85.161,57.782-142.839,57.782
			c-57.967,0-107.172-15.715-139.028-58.474c-0.619-0.832-1.372-0.47-1.125,0.543c12.717,52.178,53.355,93.403,105.193,106.948
			l30.981,164.834l-101.426-62.478l28.925,109.997c0,0-62.476-13.11-64.404-31.626c-1.566-15.034,37.583-21.728,28.536-23.911
			c-44.733-10.795-111.928,6.83-107.597,31.24c8.484,47.817,159.433,67.064,215.966,67.102c62.864,0.04,218.9-22.501,224.065-69.034
			C536.486,590.796,445.872,575.409,418.859,585.012z"/>
		<g>
			<path d="M267.677,324.033c0,22.52-6.041,43.626-16.583,61.796c5.996,0.283,12.065,0.435,18.22,0.435
				c37.327,0,73.218-5.011,104.919-16.899c-3.687-96.541-83.098-173.678-180.542-173.678c-14.829,0-29.223,1.826-43.013,5.193
				C215.847,204.167,267.677,258.046,267.677,324.033z"/>
			<path d="M213.653,474.924c-20.9-6.098-40.305-15.698-57.527-28.14c-3.872,0.366-7.793,0.562-11.761,0.562
				c-68.103,0-123.313-55.209-123.313-123.313c0-0.418,0.029-0.832,0.031-1.25C15.833,339.717,13,357.715,13,376.378
				c0,99.792,80.898,180.69,180.69,180.69c11.896,0,23.518-1.162,34.771-3.355L213.653,474.924z"/>
		</g>
		<path d="M295.434,676.697l13.325-80.997l-30.648-59.345l38.792,9.892l13.731-84.446c62.603-19.415,111.257-70.489,127.297-134.504
			c0.421-1.688-0.808-2.337-1.83-0.979c-41.16,54.654-109.881,74.555-184.301,74.555c-74.793,0-138.281-20.277-179.384-75.448
			c-0.799-1.073-1.77-0.607-1.452,0.7c16.409,67.324,68.843,120.516,135.728,137.993l39.974,212.681c0,0,7.149,3.929,14.725,3.929
			C289.454,680.728,295.434,676.697,295.434,676.697z"/>
	</g>
	<g id="Bloom">
		<path display="none" fill="#FFFFFF" d="M391.312,456.169c-0.848-19.729-18.114-39.207-26.769-48.399
			c-0.838-0.892-3.659-1.877-4.834-1.524c-3.403,1.024-9.653,6.354-13.156,7.583c-1.151,0.403-3.026-0.127-4.152-0.604
			c-4.432-1.876-11.449-9.613-13.48-14.077c-0.271-0.593-0.479-1.671-0.576-2.81c3.176-2.593,6.971-5.189,8.264-7.918
			c0.065-0.137,0.115-0.305,0.166-0.472c0.434-0.537,0.794-1.078,1.053-1.624c0.317-0.669,0.444-1.734,0.457-2.837
			c1.335-1.202,2.453-2.418,3.043-3.663c0.69-1.455,0.505-4.759,0.121-6.323c-0.929-3.772-4.468-10.236-6.682-13.719
			c-1.637-2.572-6.916-9.067-9.298-11.681c-0.62-0.679-1.678-0.696-1.678-0.696s-1.056,0.017-1.675,0.696
			c-2.386,2.613-7.664,9.109-9.301,11.681c-1.309,2.058-3.075,5.155-4.497,8.124c-0.34,0.571-0.694,1.182-1.053,1.819
			c-2.181,3.622-5.445,9.135-6.265,12.464c-0.384,1.564-0.338,5.771,0.125,7.313c2.458,8.188,10.024,11.347,11,12.667
			c0.708,0.958,2.604,3.041-0.761,6.695c-2.303,2.501-1.867,2.021-4.239,3.805c-2.217,1.668-3.394,1.354-7.375,0.625
			c-3.649-0.669-8.475-6.022-11.878-7.047c-1.172-0.353-3.997,0.633-4.836,1.524c-5.854,6.22-15.646,17.15-21.633,29.679
			c-4.65,7.775-8.257,16.472-8.632,25.221c-0.727,16.979,13.197,35.554,19.444,44.258c8.846,12.319,38.258,38.634,45.332,44.555
			c0.939,0.786,2.744,0.655,2.744,0.655s1.804,0.131,2.743-0.655c7.073-5.921,36.487-32.235,45.332-44.555
			c3.48-4.848,9.339-12.759,13.724-21.749C387.192,476.475,391.735,466.053,391.312,456.169z M325.161,516.852
			c-0.697,0.627-1.367,0.674-1.369,0.674h-0.002c-0.002,0-0.672-0.047-1.37-0.674c-5.371-4.821-28.332-26.75-33.62-36.864
			c-3.329-6.368-4.053-19.267-2.625-27.813c0.379-2.269,1.007-4.38,1.82-6.376c1.93-2.884,4.207-5.566,6.609-8.202
			c2.821-3.095,4.104-3.263,4.759-3.256c-0.424,0.587-1.022,1.468-2.174,3.272c-2.596,4.063-4.155,6.188-5.187,9.111
			c-2.776,4.288-4.007,6.398-4.794,12.406c-0.737,5.62,0.158,17.53,5.406,25.96c6.213,9.98,20.977,19.11,25.568,22.269
			c0.722,0.496,2.106,0.516,2.108,0.516s1.384-0.02,2.105-0.516c4.593-3.158,19.355-12.288,25.569-22.269
			c0.976-1.566,1.8-3.254,2.492-4.998c0.354-0.498,0.694-0.999,1.008-1.502c4.575-7.346,5.84-17.331,5.603-23.497
			c0.344,1.153,0.631,2.342,0.838,3.581c1.242,7.44,0.854,18.176-1.465,25.033C348.662,494.709,329.944,512.559,325.161,516.852z
			 M325.043,419.957c-0.238,0.022-1.253,0-1.253,0s-1.015,0.022-1.252,0c-2.156-0.18-6.778-0.799-8.111-2.505
			c-0.074-0.095-0.121-0.23-0.155-0.381c1.392-1.213,2.936-2.277,4.11-3.021c0.441-0.276,1.908-0.237,1.908-0.237
			s1.468-0.039,1.907,0.237c1.903,1.204,4.778,3.248,6.392,5.407C327.257,419.73,325.938,419.883,325.043,419.957z M333.154,414.946
			c0.055,0.188,0.111,0.459,0.154,0.752c-2.354-2.199-4.664-4.884-6.273-7.263C329.455,410.105,332.465,412.588,333.154,414.946z"/>
		<path display="none" d="M363.186,416.146c-0.803-0.854-3.504-1.797-4.629-1.46c-3.258,0.981-9.242,6.083-12.595,7.26
			c-1.103,0.387-2.897-0.122-3.976-0.579c-4.243-1.796-10.962-9.203-12.906-13.477c-0.593-1.301-0.879-5.043-0.269-6.332
			c1.921-4.073,10.148-7.954,12.146-12.169c0.661-1.393,0.483-4.556,0.115-6.053c-0.889-3.612-4.276-9.8-6.396-13.134
			c-1.566-2.462-6.621-8.681-8.901-11.183c-0.594-0.649-1.606-0.666-1.606-0.666s-1.011,0.016-1.603,0.666
			c-2.285,2.502-7.338,8.721-8.905,11.183c-2.119,3.334-5.507,9.522-6.396,13.134c-0.367,1.497-0.546,4.661,0.114,6.053
			c2,4.215,10.225,8.096,12.148,12.169c0.609,1.289,0.321,5.031-0.271,6.332c-1.942,4.273-8.661,11.681-12.904,13.477
			c-1.078,0.457-2.873,0.966-3.976,0.579c-3.352-1.177-9.337-6.278-12.596-7.26c-1.122-0.337-3.826,0.606-4.629,1.46
			c-8.283,8.8-24.814,27.447-25.625,46.336c-0.696,16.256,12.635,34.038,18.616,42.371c8.469,11.795,36.628,36.987,43.399,42.656
			c0.899,0.753,2.627,0.628,2.627,0.628s1.727,0.125,2.626-0.628c6.772-5.669,34.933-30.861,43.4-42.656
			c5.982-8.333,19.312-26.115,18.617-42.371C388.001,443.594,371.47,424.946,363.186,416.146z M315.205,423.018
			c0.787-2.701,4.759-5.576,7.138-7.081c0.422-0.265,1.826-0.228,1.826-0.228s1.405-0.037,1.826,0.228
			c2.378,1.505,6.351,4.38,7.139,7.081c0.168,0.577,0.369,1.926,0,2.398c-1.275,1.633-5.701,2.227-7.766,2.398
			c-0.229,0.021-1.199,0-1.199,0s-0.972,0.021-1.198,0c-2.064-0.172-6.489-0.766-7.766-2.398
			C314.836,424.943,315.037,423.595,315.205,423.018z M357.669,485.286c-5.062,9.683-27.045,30.677-32.188,35.293
			c-0.667,0.601-1.309,0.645-1.311,0.645h-0.002c-0.002,0-0.643-0.044-1.312-0.645c-5.142-4.616-27.125-25.61-32.187-35.293
			c-3.187-6.098-3.88-18.446-2.513-26.628c1.37-8.211,6.074-14.314,11.42-20.18c3.122-3.426,4.279-3.106,4.811-3.113
			c0.39-0.006-0.221,1.495-1.938,3.963c-1.491,2.147-1.123,1.277-3.749,5.389c-3.833,6.001-5.313,7.57-6.205,14.378
			c-0.705,5.381,0.151,16.782,5.176,24.854c5.948,9.555,20.082,18.296,24.479,21.319c0.691,0.475,2.017,0.493,2.019,0.493
			s1.325-0.019,2.016-0.493c4.397-3.023,18.53-11.765,24.479-21.319c5.026-8.071,5.882-19.473,5.176-24.854
			c-0.893-6.808-2.37-8.377-6.203-14.378c-2.627-4.111-2.26-3.241-3.751-5.389c-1.718-2.468-2.325-3.969-1.937-3.963
			c0.53,0.007,1.69-0.313,4.812,3.113c5.344,5.865,10.05,11.969,11.421,20.18C361.549,466.84,360.858,479.188,357.669,485.286z"/>
	</g>
	<g id="Charge">
		<path display="none" fill="#FFFFFF" d="M521.827,438.031h-53.073l-0.014-0.02c-21.306-0.221-38.518-17.541-38.518-38.903
			c0-6.511,1.622-12.64,4.446-18.033l-0.022-0.038l67.79-131.205L244.661,456.281h57.315c21.498,0,38.923,17.426,38.923,38.923
			c0,6.922-1.827,13.407-4.993,19.038l0.012,0.019l-91.257,158.734L521.827,438.031z"/>
		<path display="none" d="M381,443h-23.266l-0.006-0.009c-9.34-0.097-16.885-7.689-16.885-17.054c0-2.854,0.71-5.541,1.949-7.905
			l-0.01-0.017L372.5,360.5l-113,90.5h25.125c9.423,0,17.063,7.639,17.063,17.063c0,3.034-0.8,5.877-2.188,8.346l0.005,0.008
			L259.5,546L381,443z"/>
	</g>
</g>
<g id="Layer_2" display="none">
	<circle cx="228.5" cy="402.75" r="16.25"/>
	<path display="inline" d="M305.998,38.805c-18.361,0-36.248,2.035-53.458,5.863c3.22-0.157,6.458-0.241,9.717-0.241
		c108.138,0,195.799,87.662,195.799,195.799c0,108.131-87.661,195.795-195.799,195.795c-108.135,0-195.796-87.664-195.796-195.795
		c0-3.263,0.083-6.506,0.243-9.728c-3.832,17.214-5.866,35.104-5.866,53.471c0,135.396,109.763,245.159,245.16,245.159
		c135.401,0,245.165-109.764,245.165-245.159C551.163,148.57,441.4,38.805,305.998,38.805z"/>
	<path display="inline" d="M250.858,389.036c11.999,0,23.689-1.33,34.935-3.831c-2.104,0.103-4.219,0.157-6.35,0.157
		c-70.667,0-127.954-57.287-127.954-127.954c0-70.664,57.287-127.95,127.954-127.95c70.666,0,127.953,57.287,127.953,127.95
		c0,2.133-0.054,4.251-0.159,6.357c2.504-11.249,3.834-22.939,3.834-34.943c0-88.48-71.729-160.212-160.212-160.212
		c-88.484,0-160.213,71.732-160.213,160.212C90.644,317.305,162.373,389.036,250.858,389.036z"/>
	<circle display="inline" cx="306.001" cy="283.967" r="74.518"/>
</g>
</svg>
