<?xml version="1.0" encoding="utf-8"?>
<!-- Generator: Adobe Illustrator 16.0.0, SVG Export Plug-In . SVG Version: 6.00 Build 0)  -->
<!DOCTYPE svg PUBLIC "-//W3C//DTD SVG 1.1//EN" "http://www.w3.org/Graphics/SVG/1.1/DTD/svg11.dtd">
<svg version="1.1" id="Layer_1" xmlns="http://www.w3.org/2000/svg" xmlns:xlink="http://www.w3.org/1999/xlink" x="0px" y="0px"
	 width="569.933px" height="534.479px" viewBox="0 0 569.933 534.479" enable-background="new 0 0 569.933 534.479"
	 xml:space="preserve">
<g>
	<path fill="#010101" d="M319.013,314.702c1.942-14.833,4.98-20.043,11.835-30.63c2.55-7.219,6.396-12.463,12.806-22.496
		c2.846-4.456,4.321-6.63,5.367-8.079c-1.615-0.018-4.783,0.397-11.749,8.038c-5.932,6.508-11.553,13.131-16.316,20.251
		c-2.01,4.929-3.559,10.142-4.493,15.742c-2.775,16.601-2.245,39.821,2.102,56.64c1.042-0.807,2.082-1.616,3.108-2.441
		C318.306,337.261,317.908,323.121,319.013,314.702z"/>
	<path fill="#010101" d="M385.828,210.861c0.085,0.372,0.2,0.707,0.383,0.94c1.52,1.944,4.772,3.311,8.354,4.269
		c0.372-4.038,0.6-8.115,0.725-12.218C392.485,205.658,389.012,208.088,385.828,210.861z"/>
	<path fill="#010101" d="M233.984,323.44c0.927-21.602,9.832-43.072,21.313-62.269c14.783-30.932,38.959-57.919,53.41-73.276
		c2.074-2.202,9.047-4.634,11.939-3.764c8.405,2.53,20.321,15.747,29.329,17.398c9.828,1.801,12.735,2.575,18.208-1.543
		c5.856-4.405,4.782-3.219,10.467-9.394c8.309-9.022,3.627-14.166,1.879-16.53c-2.409-3.26-21.087-11.06-27.159-31.274
		c-1.143-3.806-1.257-14.193-0.309-18.055c1.873-7.612,8.924-19.843,14.232-28.713C332.719,38.497,269.725,0,197.722,0
		c-16.227,0-31.978,1.998-47.067,5.683c71.312,3.596,128.027,62.555,128.027,134.761c0,74.523-60.411,134.936-134.934,134.936
		c-74.522,0-134.937-60.413-134.937-134.936c0-0.458,0.032-0.91,0.034-1.368C3.1,157.606,0,177.301,0,197.723
		c0,109.199,88.523,197.722,197.722,197.722c19.042,0,37.434-2.746,54.858-7.771C241.795,367.813,233.057,345.104,233.984,323.44z"
		/>
</g>
<path fill="#010101" d="M506.596,208.578c-1.981-2.107-8.651-4.437-11.429-3.604c-8.044,2.423-22.818,15.019-31.096,17.924
	c-2.723,0.955-7.154-0.301-9.815-1.43c-10.477-4.434-27.064-22.721-31.865-33.273c-1.464-3.211-2.171-12.451-0.663-15.633
	c4.742-10.057,25.057-19.639,29.989-30.045c1.633-3.438,1.194-11.249,0.285-14.945c-2.195-8.917-10.559-24.197-15.793-32.428
	c-3.867-6.079-16.348-21.434-21.978-27.611c-1.466-1.603-3.967-1.643-3.967-1.643s-2.494,0.04-3.956,1.643
	c-5.642,6.177-18.116,21.532-21.986,27.611c-5.231,8.231-13.597,23.511-15.79,32.428c-0.907,3.696-1.349,11.507,0.28,14.945
	c4.939,10.406,25.245,19.988,29.995,30.045c1.504,3.182,0.793,12.421-0.671,15.633c-4.795,10.552-21.384,28.839-31.859,33.273
	c-2.662,1.129-7.094,2.385-9.816,1.43c-8.274-2.905-23.052-15.501-31.099-17.924c-2.77-0.832-9.446,1.497-11.428,3.604
	c-20.451,21.727-61.267,67.766-63.268,114.401c-1.718,40.136,31.194,84.04,45.961,104.613
	c20.908,29.121,90.433,91.319,107.151,105.316c2.221,1.859,6.485,1.551,6.485,1.551s4.264,0.309,6.483-1.551
	c16.722-13.997,86.247-76.195,107.154-105.316c14.771-20.573,47.68-64.478,45.966-104.613
	C567.865,276.344,527.049,230.305,506.596,208.578z M388.134,225.542c1.943-6.669,11.75-13.767,17.623-17.483
	c1.04-0.653,4.508-0.562,4.508-0.562s3.47-0.092,4.509,0.562c5.872,3.716,15.68,10.814,17.625,17.483
	c0.415,1.425,0.911,4.755,0,5.921c-3.147,4.032-14.076,5.498-19.173,5.922c-0.564,0.051-2.961,0-2.961,0s-2.399,0.051-2.958,0
	c-5.098-0.424-16.022-1.89-19.173-5.922C387.222,230.297,387.719,226.967,388.134,225.542z M492.976,379.281
	c-12.496,23.906-66.773,75.739-79.47,87.137c-1.647,1.483-3.231,1.593-3.236,1.593h-0.005c-0.004,0-1.586-0.109-3.237-1.593
	c-12.694-11.397-66.972-63.23-79.47-87.137c-7.867-15.055-9.576-45.543-6.202-65.743c3.381-20.272,14.995-35.342,28.195-49.823
	c7.709-8.458,10.565-7.67,11.877-7.688c0.963-0.014-0.544,3.692-4.783,9.785c-3.682,5.302-2.772,3.154-9.256,13.305
	c-9.464,14.816-13.117,18.691-15.318,35.498c-1.74,13.285,0.372,41.436,12.779,61.362c14.687,23.591,49.581,45.172,60.437,52.637
	c1.707,1.173,4.979,1.218,4.983,1.218s3.272-0.045,4.978-1.218c10.856-7.465,45.751-29.046,60.438-52.637
	c12.41-19.927,14.521-48.077,12.778-61.362c-2.204-16.807-5.852-20.682-15.314-35.498c-6.486-10.151-5.58-8.002-9.261-13.305
	c-4.242-6.093-5.741-9.798-4.782-9.785c1.31,0.018,4.174-0.771,11.879,7.688c13.194,14.481,24.813,29.55,28.199,49.823
	C502.555,333.738,500.848,364.227,492.976,379.281z"/>
</svg>
