<?xml version="1.0" encoding="utf-8"?>
<!-- Generator: Adobe Illustrator 16.0.0, SVG Export Plug-In . SVG Version: 6.00 Build 0)  -->
<!DOCTYPE svg PUBLIC "-//W3C//DTD SVG 1.1//EN" "http://www.w3.org/Graphics/SVG/1.1/DTD/svg11.dtd">
<svg version="1.1" id="Layer_1" xmlns="http://www.w3.org/2000/svg" xmlns:xlink="http://www.w3.org/1999/xlink" x="0px" y="0px"
	 width="612px" height="589.158px" viewBox="0 0 612 589.158" enable-background="new 0 0 612 589.158" xml:space="preserve">
<path d="M379.025,372.395c-2.732-16.895-17.344-29.815-35.014-29.815h-52.295l0.051-0.04h-53.554l198.911-159.304
	C419.564,79.234,329.129,0,220.132,0c-18.065,0-35.601,2.225-52.401,6.327c79.394,4.003,142.536,69.645,142.536,150.034
	c0,82.97-67.257,150.229-150.228,150.229C77.071,306.59,9.81,239.332,9.81,156.361c0-0.51,0.035-1.013,0.037-1.523
	C3.45,175.469,0,197.396,0,220.133c0,121.575,98.557,220.132,220.131,220.132C282.608,440.265,338.957,414.196,379.025,372.395z"/>
<path d="M612.981,306.033h-63.953l-0.017-0.024c-25.671-0.266-46.411-21.136-46.411-46.877c0-7.846,1.952-15.232,5.357-21.729
	l-0.025-0.046l81.684-158.098L279.002,328.022h69.064c25.902,0,46.9,20.998,46.9,46.903c0,8.339-2.199,16.153-6.016,22.94
	l0.015,0.021L279.002,589.158L612.981,306.033z"/>
</svg>
