<?xml version="1.0" encoding="utf-8"?>
<!-- Generator: Adobe Illustrator 16.0.0, SVG Export Plug-In . SVG Version: 6.00 Build 0)  -->
<!DOCTYPE svg PUBLIC "-//W3C//DTD SVG 1.1//EN" "http://www.w3.org/Graphics/SVG/1.1/DTD/svg11.dtd">
<svg version="1.1" id="Layer_1" xmlns="http://www.w3.org/2000/svg" xmlns:xlink="http://www.w3.org/1999/xlink" x="0px" y="0px"
	 width="512.166px" height="512.168px" viewBox="0 0 512.166 512.168" enable-background="new 0 0 512.166 512.168"
	 xml:space="preserve">
<path fill="#010101" d="M256.083,0c-21.016,0-41.416,2.587-60.959,7.36c92.359,4.658,165.816,81.019,165.816,174.538
	c0,96.521-78.241,174.765-174.763,174.765c-96.519,0-174.765-78.244-174.765-174.765c0-0.593,0.041-1.179,0.044-1.772
	C4.014,204.126,0,229.635,0,256.084c0,141.43,114.653,256.083,256.083,256.083c141.434,0,256.083-114.653,256.083-256.083
	C512.166,114.652,397.517,0,256.083,0z"/>
<path fill="#231F20" d="M186.932,313.909c10.486,0,20.665-1.293,30.417-3.676c-46.084-2.32-82.736-40.421-82.736-87.085
	c0-48.159,39.04-87.199,87.199-87.199c48.158,0,87.199,39.04,87.199,87.199c0,0.297-0.019,0.587-0.019,0.884
	c3.71-11.973,5.715-24.703,5.715-37.898c0-70.568-57.206-127.774-127.775-127.774c-70.57,0-127.774,57.206-127.774,127.774
	C59.158,256.699,116.362,313.909,186.932,313.909z"/>
</svg>
