<?xml version="1.0" encoding="utf-8"?>
<!-- Generator: Adobe Illustrator 16.0.0, SVG Export Plug-In . SVG Version: 6.00 Build 0)  -->
<!DOCTYPE svg PUBLIC "-//W3C//DTD SVG 1.1//EN" "http://www.w3.org/Graphics/SVG/1.1/DTD/svg11.dtd">
<svg version="1.1" id="Layer_1" xmlns="http://www.w3.org/2000/svg" xmlns:xlink="http://www.w3.org/1999/xlink" x="0px" y="0px"
	 width="490.325px" height="490.324px" viewBox="60.838 38.805 490.325 490.324"
	 enable-background="new 60.838 38.805 490.325 490.324" xml:space="preserve">
<path display="none" d="M355.667,447.658c-9.881-0.001-17.891-8.012-17.891-17.892c0-2.257,0.436-4.408,1.198-6.397l-0.034-0.05
	l21.513-57.508l-104.533,89.366l34.09-0.008c0.314-0.034,0.632-0.054,0.956-0.054c4.86,0,8.799,3.939,8.799,8.799
	c0,1.229-0.254,2.399-0.709,3.463l0.007,0.01l-30.036,69.636l104.532-89.367l-17.892,0.005L355.667,447.658z"/>
<path display="none" d="M238.083,331.667c-6.572,0-12.952,0.809-19.063,2.302c28.883,1.457,51.854,25.336,51.854,54.582
	c0,30.184-24.468,54.653-54.652,54.653c-30.184,0-54.653-24.469-54.653-54.653c0-0.186,0.013-0.369,0.014-0.554
	c-2.327,7.505-3.583,15.482-3.583,23.754c0,44.229,35.854,80.083,80.083,80.083c44.229,0,80.083-35.854,80.083-80.083
	C318.166,367.521,282.313,331.667,238.083,331.667z"/>
<path display="none" fill="#FFFFFF" d="M356.125,450.239h-17.617l-0.004-0.007c-7.072-0.074-12.785-5.823-12.785-12.913
	c0-2.162,0.537-4.196,1.476-5.985l-0.008-0.015l22.503-43.55l-85.564,68.526h19.025c7.136,0,12.919,5.785,12.919,12.92
	c0,2.298-0.606,4.45-1.657,6.32l0.004,0.005l-30.291,52.689L356.125,450.239z"/>
<path display="none" fill="#FFFFFF" d="M521.827,438.031h-53.073l-0.014-0.02c-21.306-0.221-38.518-17.541-38.518-38.903
	c0-6.511,1.622-12.64,4.446-18.033l-0.022-0.038l67.79-131.205L244.661,456.281h57.315c21.498,0,38.923,17.426,38.923,38.923
	c0,6.922-1.827,13.407-4.993,19.038l0.012,0.019l-91.257,158.734L521.827,438.031z"/>
<path display="none" d="M381,443h-23.266l-0.006-0.009c-9.34-0.097-16.885-7.689-16.885-17.054c0-2.854,0.71-5.541,1.949-7.905
	l-0.01-0.017L372.5,360.5l-113,90.5h25.125c9.423,0,17.063,7.639,17.063,17.063c0,3.034-0.8,5.877-2.188,8.346l0.005,0.008
	L259.5,546L381,443z"/>
<path display="none" fill="#FFFFFF" d="M391.312,456.169c-0.848-19.729-18.114-39.207-26.769-48.399
	c-0.838-0.892-3.659-1.877-4.834-1.524c-3.403,1.024-9.653,6.354-13.156,7.583c-1.151,0.403-3.026-0.127-4.152-0.604
	c-4.432-1.876-11.449-9.613-13.48-14.077c-0.271-0.593-0.479-1.671-0.576-2.81c3.176-2.593,6.971-5.189,8.264-7.918
	c0.065-0.137,0.115-0.305,0.166-0.472c0.434-0.537,0.794-1.078,1.053-1.624c0.317-0.669,0.444-1.734,0.457-2.837
	c1.335-1.202,2.453-2.418,3.043-3.663c0.69-1.455,0.505-4.759,0.121-6.323c-0.929-3.772-4.468-10.236-6.682-13.719
	c-1.637-2.572-6.916-9.067-9.298-11.681c-0.62-0.679-1.678-0.696-1.678-0.696s-1.056,0.017-1.675,0.696
	c-2.386,2.613-7.664,9.109-9.301,11.681c-1.309,2.058-3.075,5.155-4.497,8.124c-0.34,0.571-0.694,1.182-1.053,1.819
	c-2.181,3.622-5.445,9.135-6.265,12.464c-0.384,1.564-0.338,5.771,0.125,7.313c2.458,8.188,10.024,11.347,11,12.667
	c0.708,0.958,2.604,3.041-0.761,6.695c-2.303,2.501-1.867,2.021-4.239,3.805c-2.217,1.668-3.394,1.354-7.375,0.625
	c-3.649-0.669-8.475-6.022-11.878-7.047c-1.172-0.353-3.997,0.633-4.836,1.524c-5.854,6.22-15.646,17.15-21.633,29.679
	c-4.65,7.775-8.257,16.472-8.632,25.221c-0.727,16.979,13.197,35.554,19.444,44.258c8.846,12.319,38.258,38.634,45.332,44.555
	c0.939,0.786,2.744,0.655,2.744,0.655s1.804,0.131,2.743-0.655c7.073-5.921,36.487-32.235,45.332-44.555
	c3.48-4.848,9.339-12.759,13.724-21.749C387.192,476.475,391.735,466.053,391.312,456.169z M325.161,516.852
	c-0.697,0.627-1.367,0.674-1.369,0.674h-0.002c-0.002,0-0.672-0.047-1.37-0.674c-5.371-4.821-28.332-26.75-33.62-36.864
	c-3.329-6.368-4.053-19.267-2.625-27.813c0.379-2.269,1.007-4.38,1.82-6.376c1.93-2.884,4.207-5.566,6.609-8.202
	c2.821-3.095,4.104-3.263,4.759-3.256c-0.424,0.587-1.022,1.468-2.174,3.272c-2.596,4.063-4.155,6.188-5.187,9.111
	c-2.776,4.288-4.007,6.398-4.794,12.406c-0.737,5.62,0.158,17.53,5.406,25.96c6.213,9.98,20.977,19.11,25.568,22.269
	c0.722,0.496,2.106,0.516,2.108,0.516s1.384-0.02,2.105-0.516c4.593-3.158,19.355-12.288,25.569-22.269
	c0.976-1.566,1.8-3.254,2.492-4.998c0.354-0.498,0.694-0.999,1.008-1.502c4.575-7.346,5.84-17.331,5.603-23.497
	c0.344,1.153,0.631,2.342,0.838,3.581c1.242,7.44,0.854,18.176-1.465,25.033C348.662,494.709,329.944,512.559,325.161,516.852z
	 M325.043,419.957c-0.238,0.022-1.253,0-1.253,0s-1.015,0.022-1.252,0c-2.156-0.18-6.778-0.799-8.111-2.505
	c-0.074-0.095-0.121-0.23-0.155-0.381c1.392-1.213,2.936-2.277,4.11-3.021c0.441-0.276,1.908-0.237,1.908-0.237
	s1.468-0.039,1.907,0.237c1.903,1.204,4.778,3.248,6.392,5.407C327.257,419.73,325.938,419.883,325.043,419.957z M333.154,414.946
	c0.055,0.188,0.111,0.459,0.154,0.752c-2.354-2.199-4.664-4.884-6.273-7.263C329.455,410.105,332.465,412.588,333.154,414.946z"/>
<path display="none" d="M363.186,416.146c-0.803-0.854-3.504-1.797-4.629-1.46c-3.258,0.981-9.242,6.083-12.595,7.26
	c-1.103,0.387-2.897-0.122-3.976-0.579c-4.243-1.796-10.962-9.203-12.906-13.477c-0.593-1.301-0.879-5.043-0.269-6.332
	c1.921-4.073,10.148-7.954,12.146-12.169c0.661-1.393,0.483-4.556,0.115-6.053c-0.889-3.612-4.276-9.8-6.396-13.134
	c-1.566-2.462-6.621-8.681-8.901-11.183c-0.594-0.649-1.606-0.666-1.606-0.666s-1.011,0.016-1.603,0.666
	c-2.285,2.502-7.338,8.721-8.905,11.183c-2.119,3.334-5.507,9.522-6.396,13.134c-0.367,1.497-0.546,4.661,0.114,6.053
	c2,4.215,10.225,8.096,12.148,12.169c0.609,1.289,0.321,5.031-0.271,6.332c-1.942,4.273-8.661,11.681-12.904,13.477
	c-1.078,0.457-2.873,0.966-3.976,0.579c-3.352-1.177-9.337-6.278-12.596-7.26c-1.122-0.337-3.826,0.606-4.629,1.46
	c-8.283,8.8-24.814,27.447-25.625,46.336c-0.696,16.256,12.635,34.038,18.616,42.371c8.469,11.795,36.628,36.987,43.399,42.656
	c0.899,0.753,2.627,0.628,2.627,0.628s1.727,0.125,2.626-0.628c6.772-5.669,34.933-30.861,43.4-42.656
	c5.982-8.333,19.312-26.115,18.617-42.371C388.001,443.594,371.47,424.946,363.186,416.146z M315.205,423.018
	c0.787-2.701,4.759-5.576,7.138-7.081c0.422-0.265,1.826-0.228,1.826-0.228s1.405-0.037,1.826,0.228
	c2.378,1.505,6.351,4.38,7.139,7.081c0.168,0.577,0.369,1.926,0,2.398c-1.275,1.633-5.701,2.227-7.766,2.398
	c-0.229,0.021-1.199,0-1.199,0s-0.972,0.021-1.198,0c-2.064-0.172-6.489-0.766-7.766-2.398
	C314.836,424.943,315.037,423.595,315.205,423.018z M357.669,485.286c-5.062,9.683-27.045,30.677-32.188,35.293
	c-0.667,0.601-1.309,0.645-1.311,0.645h-0.002c-0.002,0-0.643-0.044-1.312-0.645c-5.142-4.616-27.125-25.61-32.187-35.293
	c-3.187-6.098-3.88-18.446-2.513-26.628c1.37-8.211,6.074-14.314,11.42-20.18c3.122-3.426,4.279-3.106,4.811-3.113
	c0.39-0.006-0.221,1.495-1.938,3.963c-1.491,2.147-1.123,1.277-3.749,5.389c-3.833,6.001-5.313,7.57-6.205,14.378
	c-0.705,5.381,0.151,16.782,5.176,24.854c5.948,9.555,20.082,18.296,24.479,21.319c0.691,0.475,2.017,0.493,2.019,0.493
	s1.325-0.019,2.016-0.493c4.397-3.023,18.53-11.765,24.479-21.319c5.026-8.071,5.882-19.473,5.176-24.854
	c-0.893-6.808-2.37-8.377-6.203-14.378c-2.627-4.111-2.26-3.241-3.751-5.389c-1.718-2.468-2.325-3.969-1.937-3.963
	c0.53,0.007,1.69-0.313,4.812,3.113c5.344,5.865,10.05,11.969,11.421,20.18C361.549,466.84,360.858,479.188,357.669,485.286z"/>
<path display="none" fill="#231F20" d="M216.458,429.833c3.279,0,6.462-0.404,9.512-1.149
	c-14.412-0.726-25.874-12.641-25.874-27.233c0-15.061,12.208-27.269,27.269-27.269s27.27,12.208,27.27,27.269
	c0,0.093-0.006,0.184-0.006,0.276c1.16-3.744,1.787-7.725,1.787-11.852c0-22.068-17.89-39.958-39.958-39.958
	c-22.069,0-39.958,17.89-39.958,39.958C176.5,411.942,194.389,429.833,216.458,429.833z"/>
<circle display="none" cx="228.5" cy="402.75" r="16.25"/>
<path d="M305.998,38.805c-18.361,0-36.248,2.035-53.458,5.863c3.22-0.157,6.458-0.241,9.717-0.241
	c108.138,0,195.799,87.662,195.799,195.799c0,108.131-87.661,195.795-195.799,195.795c-108.135,0-195.796-87.664-195.796-195.795
	c0-3.263,0.083-6.506,0.243-9.728c-3.832,17.214-5.866,35.104-5.866,53.471c0,135.396,109.763,245.159,245.16,245.159
	c135.401,0,245.165-109.764,245.165-245.159C551.163,148.57,441.4,38.805,305.998,38.805z"/>
<path d="M250.858,389.036c11.999,0,23.689-1.33,34.935-3.831c-2.104,0.103-4.219,0.157-6.35,0.157
	c-70.667,0-127.954-57.287-127.954-127.954c0-70.664,57.287-127.95,127.954-127.95c70.666,0,127.953,57.287,127.953,127.95
	c0,2.133-0.054,4.251-0.159,6.357c2.504-11.249,3.834-22.939,3.834-34.943c0-88.48-71.729-160.212-160.212-160.212
	c-88.484,0-160.213,71.732-160.213,160.212C90.644,317.305,162.373,389.036,250.858,389.036z"/>
<circle cx="306.001" cy="283.967" r="74.518"/>
</svg>
